{"glyphs":{"0":{"ha":863,"x_min":54,"x_max":808,"o":"m 54 340 l 54 782 q 113 941 54 886 q 276 996 172 996 l 585 996 q 747 941 686 996 q 808 782 808 886 l 808 265 q 792 141 808 192 q 747 59 776 90 q 676 14 718 28 q 583 0 635 0 l 304 0 q 194 14 240 0 q 116 59 147 28 q 69 141 85 90 q 54 265 54 192 l 54 340 m 351 174 l 510 174 q 600 201 578 174 q 622 283 622 228 l 622 714 q 616 753 622 733 q 596 788 610 772 q 561 813 582 803 q 510 822 540 822 l 351 822 q 272 797 303 822 q 242 714 242 772 l 242 283 q 266 201 242 228 q 350 174 290 174 l 351 174 z "},"1":{"ha":347,"x_min":35,"x_max":288,"o":"m 114 0 l 274 0 q 288 14 288 0 l 288 944 q 274 983 288 969 q 236 996 260 996 l 49 996 q 35 982 35 996 l 35 836 q 49 822 35 822 l 86 822 q 100 808 100 822 l 100 14 q 114 0 100 0 z "},"2":{"ha":788,"x_min":53,"x_max":739,"o":"m 707 174 l 283 174 q 269 188 269 174 l 269 294 q 288 336 269 319 q 335 366 306 353 q 405 392 365 379 q 488 419 444 404 q 611 469 563 446 q 688 524 660 492 q 728 602 717 556 q 739 724 739 649 q 723 815 739 767 q 674 903 707 863 q 588 969 640 943 q 461 996 535 996 l 96 996 q 82 982 82 996 l 82 836 q 96 822 82 822 l 461 822 q 505 811 488 822 q 533 784 522 800 q 547 751 543 768 q 550 724 550 735 q 529 663 550 688 q 476 619 508 638 q 402 586 443 600 q 320 560 361 572 q 243 536 279 549 q 183 508 207 524 q 135 472 158 492 q 93 426 111 453 q 64 360 75 399 q 53 267 53 322 l 53 14 q 67 0 53 0 l 707 0 q 721 14 721 0 l 721 160 q 707 174 721 174 z "},"3":{"ha":839,"x_min":57,"x_max":790,"o":"m 551 0 q 651 22 607 0 q 726 81 694 44 q 774 166 757 118 q 790 264 790 214 q 778 388 790 335 q 728 486 767 442 q 703 509 719 497 q 686 525 686 521 q 703 536 686 529 q 728 550 719 543 q 776 623 767 581 q 786 724 786 665 q 703 923 786 850 q 458 996 619 996 l 71 996 q 57 982 57 996 l 57 836 q 71 822 57 822 l 475 822 q 510 814 493 822 q 542 792 528 806 q 564 761 556 779 q 572 724 572 743 q 564 687 572 706 q 542 653 556 668 q 510 629 528 639 q 475 619 493 619 l 178 619 q 164 606 164 619 l 164 460 q 178 446 164 446 l 417 446 q 505 430 472 446 q 554 390 538 414 q 576 340 571 367 q 581 294 581 314 q 572 253 581 274 q 547 214 563 232 q 510 185 531 196 q 468 174 490 174 l 71 174 q 57 160 57 174 l 57 14 q 71 0 57 0 l 551 0 z "},"4":{"ha":861,"x_min":14,"x_max":821,"o":"m 539 0 l 721 0 q 735 14 735 0 l 735 183 q 749 197 735 197 l 813 197 q 821 211 821 197 l 821 357 q 807 371 821 371 l 749 371 q 735 385 735 371 l 735 964 q 704 988 735 981 q 636 996 674 996 l 488 996 q 463 993 474 996 q 440 976 451 990 l 25 451 q 17 439 19 444 q 14 424 14 433 l 14 211 q 28 197 14 197 l 511 197 q 525 183 525 197 l 525 14 q 539 0 525 0 m 525 385 q 511 371 525 371 l 258 371 q 247 372 253 371 q 242 376 242 372 q 244 387 242 383 q 250 396 246 390 l 501 739 q 511 751 506 743 q 521 758 517 758 q 525 749 525 758 l 525 385 z "},"5":{"ha":871,"x_min":57,"x_max":825,"o":"m 514 0 q 659 24 600 0 q 755 91 718 49 q 808 190 792 133 q 825 313 825 247 q 817 418 825 364 q 777 517 808 472 q 683 590 746 561 q 514 618 621 618 l 279 618 q 265 632 265 618 l 265 808 q 279 822 265 822 l 760 822 q 774 836 774 822 l 774 982 q 760 996 774 996 l 71 996 q 57 982 57 996 l 57 451 q 71 438 57 438 l 496 438 q 540 434 518 438 q 578 418 561 431 q 604 381 594 406 q 614 313 614 356 q 578 208 614 243 q 496 174 542 174 l 71 174 q 57 160 57 174 l 57 14 q 71 0 57 0 l 514 0 z "},"6":{"ha":833,"x_min":51,"x_max":786,"o":"m 364 822 l 711 822 q 725 836 725 822 l 725 982 q 711 996 725 996 l 364 996 q 219 972 278 996 q 122 909 160 949 q 68 817 85 869 q 51 706 51 764 l 51 215 q 63 152 51 189 q 95 81 74 115 q 149 24 117 47 q 226 0 182 0 l 592 0 q 697 32 658 0 q 756 108 736 64 q 781 202 775 153 q 786 286 786 251 l 786 379 q 769 474 786 428 q 725 551 751 519 q 660 604 697 588 q 565 621 622 621 l 353 621 q 290 608 317 621 q 253 594 264 594 q 246 604 246 594 l 246 719 q 256 758 246 739 q 281 791 265 776 q 318 814 297 806 q 361 822 339 822 l 364 822 m 350 181 q 312 184 331 181 q 278 199 293 188 q 255 234 264 211 q 246 294 246 257 l 246 333 q 265 399 246 376 q 313 431 283 421 q 377 443 342 442 q 446 444 413 444 q 501 440 475 444 q 548 424 528 436 q 580 390 568 413 q 592 333 592 368 l 592 294 q 590 240 592 263 q 579 205 588 218 q 555 186 571 192 q 511 181 539 181 l 350 181 z "},"7":{"ha":740,"x_min":50,"x_max":725,"o":"m 64 822 q 50 836 50 822 l 50 982 q 64 996 50 996 l 660 996 q 703 982 681 996 q 725 939 725 968 l 725 844 q 722 824 725 832 q 708 796 719 815 l 279 21 q 268 7 275 14 q 254 0 261 0 l 75 0 q 64 5 68 0 q 60 15 60 10 q 61 21 60 19 l 511 804 q 513 811 513 807 q 500 822 513 822 l 64 822 z "},"8":{"ha":857,"x_min":47,"x_max":810,"o":"m 69 708 q 96 576 69 625 q 153 513 122 528 q 160 507 160 508 q 153 501 160 504 q 74 430 100 479 q 47 282 47 381 q 69 131 47 188 q 138 43 92 74 q 256 2 183 13 q 428 -8 328 -8 q 600 2 528 -8 q 719 43 672 13 q 788 131 765 74 q 810 282 810 188 q 783 430 810 381 q 703 501 756 479 q 696 507 696 504 q 703 513 696 508 q 760 576 735 528 q 786 708 786 625 q 755 879 786 819 q 673 967 724 939 q 558 999 622 994 q 428 1004 493 1004 q 298 999 363 1004 q 183 967 233 994 q 101 879 132 939 q 69 708 69 819 m 608 303 q 600 257 608 282 q 571 210 592 232 q 515 174 550 189 q 428 160 481 160 q 340 174 375 160 q 285 210 306 189 q 256 257 264 232 q 247 303 247 282 q 264 368 247 342 q 306 411 281 394 q 364 435 332 428 q 428 442 396 442 q 491 435 458 442 q 549 411 524 428 q 592 368 575 394 q 608 303 608 342 m 592 725 l 592 711 q 547 615 592 640 q 428 589 501 589 q 310 615 354 589 q 265 711 265 640 l 265 725 q 280 777 265 757 q 317 808 294 797 q 369 823 340 819 q 428 826 399 826 q 487 823 457 826 q 540 808 517 819 q 577 777 563 797 q 592 725 592 757 z "},"9":{"ha":853,"x_min":46,"x_max":800,"o":"m 508 181 l 124 181 q 110 167 110 181 l 110 14 q 124 0 110 0 l 467 0 q 615 23 551 0 q 719 85 678 46 q 780 178 760 125 q 800 289 800 231 l 800 779 q 789 854 800 815 q 753 924 778 893 q 692 976 729 956 q 604 996 656 996 l 267 996 q 157 964 200 996 q 90 886 114 932 q 56 790 65 840 q 46 706 46 740 l 46 629 q 50 579 46 606 q 63 528 54 553 q 82 481 71 503 q 106 443 93 460 q 133 412 119 425 q 162 390 146 399 q 199 378 178 382 q 247 374 219 374 l 508 374 q 551 379 535 372 q 578 393 568 386 q 592 402 588 400 q 596 394 596 404 l 596 281 q 575 210 596 240 q 508 181 554 179 m 372 551 q 331 555 353 551 q 290 570 308 558 q 260 605 272 582 q 249 665 249 628 l 249 704 q 266 767 249 744 q 310 801 283 790 q 371 813 338 811 q 436 815 404 815 q 495 813 467 815 q 545 798 524 810 q 581 764 567 786 q 594 704 594 742 l 594 665 q 581 611 594 633 q 547 576 568 589 q 499 557 526 563 q 444 551 472 551 l 372 551 z "},"":{"ha":636,"x_min":57,"x_max":578,"o":"m 57 0 l 57 1132 l 578 1132 l 578 0 l 57 0 m 143 88 l 490 88 l 490 1046 l 143 1046 l 143 88 z "}," ":{"ha":392,"x_min":0,"x_max":0,"o":""},"!":{"ha":318,"x_min":57,"x_max":250,"o":"m 57 982 l 57 308 q 71 294 57 294 l 236 294 q 250 308 250 294 l 250 982 q 236 996 250 996 l 71 996 q 57 982 57 996 m 57 14 q 71 0 57 0 l 236 0 q 250 14 250 0 l 250 178 q 236 192 250 192 l 71 192 q 57 178 57 192 l 57 14 z "},"\"":{"ha":499,"x_min":50,"x_max":447,"o":"m 51 679 q 64 665 50 665 l 185 665 q 200 679 199 665 l 226 982 q 214 996 228 996 l 92 996 q 76 982 78 996 l 51 679 m 271 679 q 283 665 269 665 l 404 665 q 419 679 418 665 l 446 982 q 433 996 447 996 l 311 996 q 296 982 297 996 l 271 679 z "},"#":{"ha":985,"x_min":26,"x_max":958,"o":"m 685 232 q 696 246 689 244 l 835 246 q 851 260 847 246 l 885 415 q 874 429 886 429 l 735 429 q 731 443 729 431 l 754 554 q 765 568 756 565 l 904 568 q 921 582 917 568 l 954 736 q 943 750 958 750 l 803 750 q 799 764 797 751 l 819 861 l 846 982 q 835 996 850 996 l 679 996 q 663 982 667 996 l 660 969 l 615 764 q 607 750 613 751 l 486 750 q 482 764 479 751 l 508 885 l 529 982 q 518 996 533 996 l 363 996 q 346 982 350 996 l 299 764 q 288 750 294 751 l 154 750 q 138 736 139 750 l 103 582 q 114 568 99 568 l 250 568 q 254 554 257 567 l 246 519 l 229 443 q 218 429 225 431 l 82 429 q 65 415 69 429 l 31 260 q 42 246 26 246 l 182 246 q 186 232 189 244 l 150 65 l 139 14 q 150 0 135 0 l 306 0 q 322 14 318 0 l 325 26 l 369 232 q 381 246 374 244 l 497 246 q 501 232 504 244 l 454 14 q 465 0 450 0 l 621 0 q 638 14 633 0 l 640 26 l 658 110 l 685 232 m 535 429 l 418 429 q 414 443 413 431 l 422 479 l 438 554 q 449 568 439 565 l 565 568 q 569 554 572 567 l 549 457 l 546 443 q 535 429 542 431 z "},"$":{"ha":822,"x_min":36,"x_max":788,"o":"m 468 1010 l 468 1079 l 357 1079 l 357 1010 q 343 996 357 996 l 249 996 q 184 976 217 993 q 129 940 151 960 q 39 753 49 874 q 36 728 36 740 q 36 701 36 715 q 41 637 36 669 q 56 573 46 604 q 83 515 67 542 q 122 468 99 488 q 204 426 158 438 q 290 414 250 415 l 343 414 q 357 400 357 414 l 357 194 q 343 181 357 181 l 68 181 q 54 167 54 181 l 54 14 q 68 0 54 0 l 343 0 q 357 -14 357 0 l 357 -86 l 467 -86 l 467 -14 q 481 0 467 0 l 574 0 q 638 19 604 0 q 696 57 672 38 q 785 251 774 125 q 788 275 788 263 q 788 304 788 289 q 783 371 788 336 q 769 438 779 406 q 742 497 758 469 q 703 544 726 525 q 622 587 667 575 q 538 600 578 599 l 482 600 q 468 614 468 600 l 468 801 q 482 815 468 815 l 715 815 q 729 829 729 815 l 729 982 q 715 996 729 996 l 482 996 q 468 1010 468 996 m 468 194 l 468 400 q 482 414 468 414 q 528 405 507 411 q 561 386 550 399 q 581 342 578 367 q 583 296 583 318 q 582 267 583 281 q 574 238 581 253 q 551 201 567 221 q 515 181 536 181 l 482 181 q 468 194 468 181 m 357 614 q 343 600 357 600 q 299 604 319 600 q 268 622 279 608 q 249 664 251 640 q 246 710 246 688 q 247 738 246 724 q 256 765 249 751 q 278 798 263 781 q 314 815 294 815 l 343 815 q 357 801 357 815 l 357 614 z "},"%":{"ha":1283,"x_min":39,"x_max":1243,"o":"m 747 161 l 747 349 q 765 424 747 386 q 918 508 806 508 l 1074 508 q 1113 504 1093 508 q 1243 349 1243 475 l 1243 161 q 1195 45 1243 89 q 1074 1 1147 1 l 918 1 q 750 136 779 1 q 747 161 747 151 m 40 649 l 40 838 q 43 861 40 847 q 183 993 64 974 q 211 996 200 996 l 365 996 q 532 861 508 996 q 535 838 535 846 l 535 649 q 532 625 535 640 q 392 492 513 511 q 365 489 374 489 l 211 489 q 183 492 200 489 q 43 625 64 511 q 40 649 39 646 m 964 174 l 1026 174 q 1074 206 1064 174 q 1076 229 1076 214 l 1076 279 q 1064 321 1076 306 q 1026 336 1044 336 l 964 336 q 918 304 928 336 q 915 279 915 296 l 915 229 q 964 174 915 174 m 256 663 l 321 663 q 356 676 338 663 q 368 718 368 693 l 368 768 q 321 824 368 824 l 256 824 q 215 800 229 824 q 208 768 208 790 l 208 718 q 223 678 208 693 q 256 663 238 663 m 285 15 q 282 8 282 10 q 294 0 282 0 l 449 0 q 465 4 460 0 q 474 15 469 8 l 1001 981 q 1004 988 1004 986 q 992 996 1004 996 l 838 996 q 822 992 826 996 q 813 981 817 988 l 285 15 z "},"&":{"ha":861,"x_min":43,"x_max":919,"o":"m 613 556 q 599 542 599 556 l 599 486 q 576 482 597 468 l 354 640 q 283 700 304 676 q 261 746 261 724 q 283 798 261 778 q 349 818 304 818 l 571 818 q 585 832 585 818 l 585 982 q 571 996 585 996 l 299 996 q 68 769 68 996 q 73 707 68 733 q 88 660 78 681 q 112 620 97 639 q 146 583 126 601 q 161 563 161 569 q 146 549 161 557 q 100 511 119 533 q 68 463 81 489 q 49 408 56 436 q 43 354 43 381 l 43 213 q 109 56 43 111 q 283 0 175 0 l 474 0 q 613 23 557 0 q 692 71 668 46 l 743 126 q 765 129 751 138 l 811 99 q 831 103 822 92 l 911 225 q 906 249 919 236 l 792 328 q 775 360 775 340 l 775 542 q 761 556 775 556 l 613 556 m 328 429 q 345 425 338 429 q 363 414 353 421 l 550 281 q 563 267 557 275 q 569 251 569 260 q 567 238 569 249 q 553 216 564 228 q 522 194 543 204 q 467 185 501 185 l 364 185 q 267 204 301 185 q 233 285 233 224 q 240 339 233 313 q 258 385 246 365 q 288 417 271 406 q 328 429 306 429 z "},"'":{"ha":265,"x_min":44,"x_max":222,"o":"m 46 679 q 58 665 44 665 l 179 665 q 194 679 193 665 l 221 982 q 208 996 222 996 l 86 996 q 71 982 72 996 l 46 679 z "},")":{"ha":374,"x_min":50,"x_max":343,"o":"m 154 217 q 138 92 154 139 q 71 -15 118 36 l 51 -36 q 50 -40 50 -37 q 56 -44 50 -44 l 251 -44 q 272 -34 263 -44 q 286 -15 281 -24 q 328 70 314 28 q 343 160 343 113 l 343 836 q 327 924 343 883 q 286 1011 311 965 q 272 1031 281 1021 q 251 1040 263 1040 l 56 1040 q 50 1036 50 1040 q 51 1032 50 1033 l 71 1011 q 138 904 118 960 q 154 779 154 856 l 154 217 z "},"*":{"ha":535,"x_min":11,"x_max":550,"o":"m 468 915 q 466 933 474 925 q 449 935 458 940 l 333 857 l 294 1001 q 281 1012 292 1013 q 268 1000 271 1011 l 229 851 l 115 935 q 98 933 106 940 q 96 915 90 925 l 174 800 l 21 761 q 11 747 11 758 q 21 735 11 738 l 175 696 l 103 589 q 104 572 96 579 q 121 569 113 564 l 229 643 l 268 493 q 281 483 271 483 q 294 492 292 482 l 336 643 l 433 576 q 450 577 442 569 q 451 593 458 585 l 386 696 l 540 736 q 550 749 550 739 q 540 763 550 760 l 388 804 l 468 915 z "},"+":{"ha":769,"x_min":11,"x_max":758,"o":"m 481 556 q 467 569 467 556 l 467 833 q 453 847 467 847 l 317 847 q 303 833 303 847 l 303 567 q 289 556 303 556 l 25 556 q 11 542 11 556 l 11 413 q 25 399 11 399 l 289 399 q 303 385 303 399 l 303 121 q 317 107 303 107 l 453 107 q 467 121 467 107 l 467 385 q 481 399 467 399 l 744 399 q 758 413 758 399 l 758 542 q 744 556 758 556 l 481 556 z "},",":{"ha":293,"x_min":51,"x_max":239,"o":"m 51 174 l 51 14 q 65 0 51 0 l 96 0 q 101 0 99 0 q 106 -1 104 0 q 104 -11 108 -4 l 58 -108 q 69 -117 54 -117 l 143 -117 q 149 -115 149 -117 q 151 -110 150 -112 l 238 6 q 239 14 239 8 l 239 174 q 225 188 239 188 l 65 188 q 51 174 51 188 z "},"-":{"ha":485,"x_min":57,"x_max":426,"o":"m 57 357 q 71 343 57 343 l 413 343 q 426 357 426 343 l 426 507 q 413 521 426 521 l 71 521 q 57 508 57 521 l 57 357 z "},".":{"ha":290,"x_min":53,"x_max":240,"o":"m 53 14 q 67 0 53 0 l 226 0 q 240 14 240 0 l 240 174 q 226 188 240 188 l 67 188 q 53 174 53 188 l 53 14 z "},"/":{"ha":736,"x_min":7,"x_max":729,"o":"m 10 15 q 7 8 7 10 q 19 0 7 0 l 174 0 q 190 4 185 0 q 199 15 194 8 l 726 981 q 729 988 729 986 q 717 996 729 996 l 563 996 q 547 992 551 996 q 538 981 542 988 l 10 15 z "},":":{"ha":299,"x_min":50,"x_max":238,"o":"m 50 14 q 64 0 50 0 l 224 0 q 238 14 238 0 l 238 174 q 224 188 238 188 l 64 188 q 50 174 50 188 l 50 14 m 50 635 q 64 621 50 621 l 224 621 q 238 635 238 621 l 238 794 q 224 808 238 808 l 64 808 q 50 794 50 808 l 50 635 z "},";":{"ha":300,"x_min":50,"x_max":238,"o":"m 50 635 q 64 621 50 621 l 224 621 q 238 635 238 621 l 238 794 q 224 808 238 808 l 64 808 q 50 794 50 808 l 50 635 m 50 168 l 50 8 q 64 -6 50 -6 l 94 -6 q 100 -6 97 -6 q 104 -7 103 -6 q 103 -17 107 -10 l 57 -114 q 68 -122 53 -122 l 142 -122 q 148 -120 147 -122 q 150 -115 149 -118 l 236 0 q 238 8 238 3 l 238 168 q 224 182 238 182 l 64 182 q 50 168 50 182 z "},"<":{"ha":776,"x_min":8,"x_max":725,"o":"m 8 528 l 8 442 q 31 411 8 418 l 656 194 q 663 193 658 193 q 679 204 675 193 l 724 336 q 725 344 725 339 q 718 354 725 351 l 375 472 q 357 485 357 478 q 375 497 357 492 l 718 615 q 725 625 725 618 q 724 633 725 631 l 679 765 q 663 776 675 776 q 656 775 658 776 l 31 558 q 8 528 8 551 z "},"=":{"ha":925,"x_min":57,"x_max":868,"o":"m 57 569 q 71 556 57 556 l 854 556 q 868 569 868 556 l 868 710 q 854 724 868 724 l 71 724 q 57 710 57 724 l 57 569 m 57 244 q 71 231 57 231 l 854 231 q 868 244 868 231 l 868 385 q 854 399 868 399 l 71 399 q 57 385 57 399 l 57 244 z "},"?":{"ha":754,"x_min":39,"x_max":732,"o":"m 176 240 q 190 226 176 226 l 364 226 q 378 240 378 226 l 378 310 q 382 356 378 336 q 397 388 386 375 q 430 408 408 401 q 486 414 451 414 q 674 492 617 414 q 732 701 732 569 q 718 807 732 754 q 675 901 704 860 q 602 969 646 943 q 499 996 558 996 l 53 996 q 39 982 39 996 l 39 829 q 53 815 39 815 l 454 815 q 493 804 478 815 q 517 776 508 793 q 528 742 525 760 q 532 710 532 724 q 515 629 532 657 q 439 601 497 601 q 322 578 371 601 q 240 516 272 556 q 192 424 207 476 q 176 310 176 371 l 176 240 m 378 175 q 364 189 378 189 l 190 189 q 176 175 176 189 l 176 14 q 190 0 176 0 l 364 0 q 378 14 378 0 l 378 175 z "},"@":{"ha":1046,"x_min":50,"x_max":999,"o":"m 322 750 l 322 647 q 332 636 322 636 l 596 636 q 622 623 611 636 q 632 596 632 610 q 616 565 632 578 q 575 553 600 553 l 407 553 q 356 536 376 553 q 322 494 335 519 q 303 441 308 469 q 297 388 297 413 q 301 350 297 375 q 316 300 306 325 q 346 256 326 275 q 394 238 365 238 l 661 238 q 732 241 699 238 q 796 256 765 244 q 874 294 838 269 q 939 353 911 319 q 983 430 967 388 q 999 521 999 472 l 999 674 q 910 915 999 833 q 658 996 821 996 l 390 996 q 142 915 231 996 q 50 674 50 832 l 50 318 q 74 181 50 240 q 143 82 99 122 q 250 21 188 42 q 390 0 313 0 l 658 0 q 869 52 790 0 q 983 208 949 104 q 978 217 986 217 l 842 217 q 831 210 833 217 q 770 158 813 174 q 663 142 728 142 l 389 142 q 242 181 285 142 q 193 322 193 222 l 193 669 q 239 813 193 772 q 389 853 285 853 l 663 853 q 810 811 764 853 q 857 669 857 769 l 857 526 q 835 444 857 475 q 768 394 813 414 q 763 392 765 393 q 758 390 761 390 q 754 396 754 390 l 754 579 q 747 643 754 611 q 722 701 739 675 q 679 744 706 728 q 615 760 653 760 l 332 760 q 322 750 322 760 m 622 356 l 450 356 q 422 369 431 356 q 413 397 413 382 q 420 424 413 413 q 443 435 428 435 l 622 435 q 632 425 632 435 l 632 365 q 622 356 632 356 z "},"A":{"ha":988,"x_min":29,"x_max":958,"o":"m 29 8 q 40 0 29 0 l 221 0 q 239 14 235 0 l 313 251 q 331 267 317 267 l 657 267 q 675 253 671 267 l 749 13 q 767 0 753 0 l 949 0 q 958 8 958 0 l 679 914 q 617 982 663 968 q 493 996 572 996 q 372 982 417 996 q 311 914 328 968 l 29 8 m 607 474 q 608 469 607 471 q 608 467 608 468 q 597 457 608 457 l 390 457 q 379 467 379 457 q 380 469 379 468 q 381 474 381 471 l 478 790 q 493 815 486 815 q 503 810 500 815 q 510 790 506 806 l 607 474 z "},"B":{"ha":879,"x_min":57,"x_max":832,"o":"m 57 982 q 71 996 57 996 l 571 996 q 663 979 621 996 q 737 931 706 963 q 786 856 768 900 q 804 756 804 811 q 792 637 804 681 q 763 570 779 593 q 735 540 747 547 q 722 528 722 532 q 744 499 722 521 q 792 447 765 476 q 809 418 801 435 q 822 384 817 401 q 830 349 828 367 q 832 319 832 332 q 819 194 832 253 q 776 93 807 136 q 693 25 744 50 q 563 0 642 0 l 71 0 q 57 14 57 0 l 57 982 m 258 194 q 272 181 258 181 l 565 181 q 604 193 589 181 q 629 224 619 206 q 642 264 639 243 q 646 300 646 285 q 638 353 646 332 q 619 388 631 375 q 592 405 607 400 q 565 410 578 410 l 272 410 q 258 396 258 410 l 258 194 m 258 611 q 272 597 258 597 l 513 597 q 592 622 568 597 q 615 710 615 646 q 585 792 615 769 q 513 815 554 815 l 272 815 q 258 801 258 815 l 258 611 z "},"C":{"ha":788,"x_min":49,"x_max":731,"o":"m 49 297 q 56 234 49 260 q 69 193 63 208 q 138 88 96 132 q 232 25 179 44 q 288 8 256 15 q 361 0 319 0 l 717 0 q 731 14 731 0 l 731 167 q 717 181 731 181 l 357 181 q 281 213 308 185 q 250 290 254 242 l 250 642 q 276 759 250 714 q 357 815 303 804 l 717 815 q 731 829 731 815 l 731 982 q 717 996 731 996 l 349 996 q 221 968 281 996 q 118 890 161 940 q 88 851 103 872 q 65 799 74 829 q 49 686 49 746 l 49 297 z "},"D":{"ha":899,"x_min":57,"x_max":849,"o":"m 71 0 l 546 0 q 682 28 625 0 q 776 103 739 57 q 831 205 814 149 q 849 315 849 261 l 849 649 q 831 775 849 713 q 776 886 814 838 q 681 965 739 935 q 544 996 624 996 l 71 996 q 57 982 57 996 l 57 14 q 71 0 57 0 m 258 801 q 272 815 258 815 l 510 815 q 559 803 535 815 q 603 773 583 792 q 635 730 622 754 q 647 681 647 706 l 647 311 q 636 265 647 288 q 607 223 625 242 q 566 192 589 204 q 521 181 543 181 l 272 181 q 258 194 258 181 l 258 801 z "},"E":{"ha":801,"x_min":56,"x_max":744,"o":"m 56 146 q 67 94 56 119 q 99 47 79 68 q 143 13 118 26 q 193 0 168 0 l 731 0 q 744 14 744 0 l 744 167 q 731 181 744 181 l 271 181 q 257 194 257 181 l 257 396 q 271 410 257 410 l 697 410 q 711 424 711 410 l 711 583 q 697 597 711 597 l 271 597 q 257 611 257 597 l 257 800 q 271 815 257 815 l 731 815 q 744 829 744 815 l 744 982 q 726 996 744 996 l 256 996 q 107 937 158 996 q 56 783 56 878 l 56 146 z "},"F":{"ha":769,"x_min":56,"x_max":757,"o":"m 56 14 q 69 0 56 0 l 243 0 q 257 14 257 0 l 257 394 q 271 410 257 410 l 697 410 q 711 424 711 410 l 711 576 q 697 590 711 590 l 271 590 q 257 606 257 590 l 257 738 q 272 795 257 775 q 324 815 286 815 l 743 815 q 757 829 757 815 l 757 982 q 743 996 757 996 l 257 996 q 177 984 214 996 q 113 949 140 972 q 71 892 86 926 q 56 810 56 857 l 56 14 z "},"G":{"ha":903,"x_min":50,"x_max":856,"o":"m 592 996 l 304 996 q 206 969 251 996 q 125 901 160 943 q 70 810 90 860 q 50 714 50 760 l 50 319 q 68 210 50 267 q 122 108 86 154 q 208 31 157 61 q 326 0 260 0 l 568 0 q 705 31 650 0 q 793 103 760 61 q 841 192 826 146 q 856 271 856 239 l 856 583 q 842 597 856 597 l 410 597 q 396 583 396 597 l 396 431 q 410 417 396 417 l 636 417 q 650 403 650 417 l 650 274 q 644 245 650 261 q 624 215 638 229 q 591 192 611 201 q 544 182 571 182 l 375 182 q 286 229 321 182 q 251 353 251 276 l 251 715 q 262 745 251 728 q 287 778 272 763 q 318 805 301 794 q 347 815 335 815 l 772 815 q 786 829 786 815 l 786 982 q 772 996 786 996 l 592 996 z "},"H":{"ha":875,"x_min":57,"x_max":817,"o":"m 57 14 q 71 0 57 0 l 244 0 q 258 14 258 0 l 258 396 q 272 410 258 410 l 601 410 q 615 396 615 410 l 615 14 q 629 0 615 0 l 803 0 q 817 14 817 0 l 817 982 q 803 996 817 996 l 629 996 q 615 982 615 996 l 615 604 q 601 590 615 590 l 272 590 q 258 604 258 590 l 258 982 q 244 996 258 996 l 71 996 q 57 982 57 996 l 57 14 z "},"I":{"ha":318,"x_min":57,"x_max":258,"o":"m 57 982 l 57 14 q 71 0 57 0 l 244 0 q 258 14 258 0 l 258 982 q 244 996 258 996 l 71 996 q 57 982 57 996 z "},"J":{"ha":651,"x_min":11,"x_max":599,"o":"m 11 14 q 25 0 11 0 l 215 0 q 504 75 410 0 q 599 314 599 150 l 599 982 q 585 996 599 996 l 411 996 q 397 982 397 996 l 397 286 q 388 253 397 271 q 363 219 378 235 q 331 192 349 203 q 297 181 314 181 l 25 181 q 11 167 11 181 l 11 14 z "},"K":{"ha":811,"x_min":57,"x_max":764,"o":"m 746 996 l 535 996 q 526 992 529 996 q 522 985 524 988 l 313 606 q 290 563 299 579 q 278 534 282 546 q 272 516 274 522 q 271 504 271 510 q 313 400 271 472 l 531 11 q 535 4 532 8 q 543 0 538 0 l 754 0 q 761 4 758 0 q 758 18 764 8 l 489 479 q 481 493 486 483 q 476 507 476 503 q 483 521 476 510 q 492 535 489 532 l 750 978 q 753 992 756 988 q 746 996 750 996 m 57 982 l 57 14 q 71 0 57 0 l 244 0 q 258 14 258 0 l 258 982 q 244 996 258 996 l 71 996 q 57 982 57 996 z "},"L":{"ha":711,"x_min":56,"x_max":701,"o":"m 688 181 l 311 181 q 257 226 257 181 l 257 982 q 243 996 257 996 l 69 996 q 56 982 56 996 l 56 243 q 104 69 56 126 q 268 1 153 11 q 285 0 275 0 q 306 0 294 0 l 688 0 q 701 14 701 0 l 701 167 q 688 181 701 181 z "},"M":{"ha":1156,"x_min":57,"x_max":1099,"o":"m 57 14 q 71 0 57 0 l 244 0 q 258 14 258 0 l 258 783 q 264 793 258 793 l 271 793 q 280 778 276 792 q 285 763 283 765 l 424 101 q 436 67 428 85 q 461 34 444 49 q 503 10 478 19 q 569 0 529 0 q 643 10 614 0 q 690 38 672 21 q 717 75 707 54 q 731 118 726 96 q 784 369 764 271 q 818 530 804 467 q 840 631 832 593 q 856 704 847 669 q 859 721 857 710 q 863 743 861 732 q 867 764 865 754 q 871 776 869 774 q 877 787 874 782 q 888 792 881 792 q 896 783 894 792 q 897 771 897 774 l 897 14 q 911 0 897 0 l 1085 0 q 1099 14 1099 0 l 1099 842 q 1043 961 1099 926 q 900 996 988 996 q 800 989 839 996 q 737 958 761 982 q 698 887 713 935 q 671 758 683 839 l 599 289 q 596 274 599 286 q 590 250 593 263 q 583 228 588 238 q 576 218 579 218 q 570 228 574 218 q 563 250 567 238 q 558 275 560 263 q 554 293 556 288 l 479 753 q 451 885 465 836 q 413 958 438 933 q 351 989 389 982 q 254 996 314 996 q 181 988 217 996 q 118 963 146 981 q 74 914 90 944 q 57 838 57 883 l 57 14 z "},"N":{"ha":910,"x_min":56,"x_max":853,"o":"m 56 14 q 69 0 56 0 l 243 0 q 257 14 257 0 l 257 793 q 267 806 257 806 q 279 793 275 806 l 467 103 q 485 65 472 83 q 514 33 497 47 q 549 9 531 18 q 585 0 568 0 l 713 0 q 767 15 742 0 q 812 53 793 29 q 842 104 831 76 q 853 160 853 132 l 853 982 q 839 996 853 996 l 665 996 q 651 982 651 996 l 651 206 q 642 192 651 192 q 628 206 632 192 l 442 892 q 388 968 428 940 q 261 996 349 996 q 162 984 201 996 q 99 948 122 972 q 65 885 75 924 q 56 792 56 846 l 56 14 z "},"O":{"ha":983,"x_min":50,"x_max":933,"o":"m 50 490 q 51 349 50 408 q 60 251 53 289 q 83 154 71 197 q 117 83 96 111 q 186 20 144 47 q 275 -18 228 -7 q 363 -26 308 -25 q 492 -28 417 -28 q 621 -26 567 -28 q 708 -18 675 -25 q 797 20 756 -7 q 867 83 839 47 q 900 154 888 111 q 924 251 913 197 q 932 349 931 289 q 933 490 933 408 l 933 499 q 932 640 933 581 q 924 738 931 700 q 900 835 913 792 q 867 906 888 878 q 797 969 839 942 q 708 1007 756 996 q 621 1015 675 1014 q 492 1017 567 1017 q 363 1015 417 1017 q 275 1007 308 1014 q 186 969 228 996 q 117 906 144 942 q 83 835 96 878 q 60 738 71 792 q 51 640 53 700 q 50 499 50 581 l 50 490 m 492 825 q 574 823 535 825 q 640 814 613 821 q 711 765 690 801 q 732 654 732 728 l 732 335 q 711 224 732 261 q 640 175 690 188 q 574 166 613 168 q 492 164 535 164 q 410 166 449 164 q 343 175 371 168 q 272 224 293 188 q 251 335 251 261 l 251 654 q 272 765 251 728 q 343 814 293 801 q 410 823 371 821 q 492 825 449 825 z "},"P":{"ha":814,"x_min":57,"x_max":797,"o":"m 57 967 l 57 14 q 71 0 57 0 l 244 0 q 258 14 258 0 l 258 332 q 272 346 258 346 l 514 346 q 646 369 592 346 q 733 435 700 392 q 782 538 767 478 q 797 671 797 597 q 782 801 797 742 q 733 904 767 861 q 646 972 700 947 q 514 996 592 996 l 71 996 q 57 982 57 996 l 57 967 m 538 815 q 577 798 563 815 q 599 757 592 781 q 608 709 606 733 q 610 671 610 685 q 608 633 610 657 q 599 585 606 608 q 577 544 592 561 q 538 526 563 526 l 272 526 q 258 540 258 526 l 258 801 q 272 815 258 815 l 538 815 z "},"Q":{"ha":1056,"x_min":49,"x_max":1015,"o":"m 1001 165 l 890 165 q 914 263 908 210 q 918 347 917 286 q 919 499 919 407 q 918 640 919 581 q 910 738 917 700 q 886 835 899 792 q 853 906 874 878 q 783 969 825 942 q 694 1007 742 996 q 614 1015 661 1014 q 492 1017 567 1017 q 368 1013 421 1017 q 288 1001 315 1008 q 194 965 236 988 q 124 904 153 942 q 85 828 100 874 q 58 733 69 783 q 53 698 54 717 q 50 653 51 679 q 49 590 49 628 q 49 499 49 553 q 50 347 49 399 q 54 268 51 294 q 79 172 61 213 q 125 103 97 131 q 485 -19 242 -19 q 501 -19 493 -19 q 518 -18 510 -19 q 524 -19 519 -19 l 1001 -19 q 1015 -6 1015 -19 l 1015 151 q 1001 165 1015 165 m 492 825 q 567 823 535 825 q 626 814 599 821 q 697 765 676 801 q 718 654 718 728 l 718 339 q 693 222 718 261 q 608 172 668 183 q 556 167 579 169 q 492 165 532 165 q 458 166 476 165 q 422 167 439 167 q 389 169 404 168 q 368 171 374 169 q 283 222 315 179 q 251 339 251 264 l 251 657 q 279 765 251 728 q 356 814 307 801 q 412 822 372 818 q 492 825 451 825 z "},"R":{"ha":883,"x_min":57,"x_max":838,"o":"m 57 982 l 57 14 q 71 0 57 0 l 244 0 q 258 14 258 0 l 258 354 q 272 368 258 368 l 442 368 q 521 282 501 360 l 607 39 q 619 15 610 29 q 638 0 629 0 l 829 0 q 838 7 838 0 q 830 19 838 10 q 819 39 822 28 l 743 274 q 719 338 732 307 q 674 411 706 369 q 672 417 672 414 q 674 424 672 421 q 678 428 676 426 q 735 470 714 447 q 775 521 756 493 q 804 699 804 576 l 804 731 q 738 928 800 863 q 664 981 701 965 q 588 996 626 996 l 71 996 q 57 982 57 996 m 544 815 q 597 765 575 811 q 606 735 604 751 q 608 700 608 719 q 598 629 608 661 q 568 581 588 597 q 525 561 544 561 l 274 561 q 258 575 258 561 l 258 801 q 272 815 258 815 l 544 815 z "},"S":{"ha":846,"x_min":49,"x_max":800,"o":"m 474 414 q 534 408 508 414 q 574 386 560 401 q 593 342 590 367 q 596 296 596 318 q 594 267 596 281 q 586 238 593 253 q 564 201 579 221 q 528 181 549 181 l 81 181 q 67 167 67 181 l 67 14 q 81 0 67 0 l 586 0 q 651 19 617 0 q 708 57 685 38 q 797 251 786 125 q 800 275 800 263 q 800 304 800 289 q 796 371 800 336 q 781 438 792 406 q 755 497 771 469 q 715 544 739 525 q 628 590 675 578 q 538 601 581 601 l 382 601 q 323 604 350 601 q 281 622 296 607 q 261 664 264 640 q 258 710 258 688 q 260 738 258 724 q 268 765 261 751 q 291 798 275 781 q 326 815 307 815 l 728 815 q 742 829 742 815 l 742 982 q 728 996 742 996 l 268 996 q 200 978 235 996 q 142 940 165 960 q 51 753 61 874 q 49 728 49 740 q 49 701 49 715 q 53 637 49 669 q 69 573 58 604 q 95 515 79 542 q 135 468 111 488 q 224 425 175 436 q 317 414 274 414 l 474 414 z "},"T":{"ha":763,"x_min":26,"x_max":736,"o":"m 482 801 q 496 815 482 815 l 722 815 q 736 829 736 815 l 736 982 q 722 996 736 996 l 40 996 q 26 982 26 996 l 26 829 q 40 815 26 815 l 267 815 q 281 801 281 815 l 281 14 q 294 0 281 0 l 468 0 q 482 14 482 0 l 482 801 z "},"U":{"ha":861,"x_min":54,"x_max":807,"o":"m 606 982 l 606 306 q 598 266 606 288 q 577 226 590 244 q 544 194 564 207 q 501 181 525 181 l 356 181 q 312 194 331 181 q 281 226 293 207 q 262 266 268 244 q 256 304 256 288 l 256 982 q 242 996 256 996 l 68 996 q 54 982 54 996 l 54 268 q 65 195 54 229 q 93 131 75 161 q 138 76 111 103 q 188 38 158 56 q 255 10 215 19 q 340 0 294 0 l 503 0 q 569 6 539 0 q 625 21 600 13 q 678 45 650 31 q 726 81 706 60 q 762 126 746 101 q 786 172 778 150 q 801 234 796 196 q 807 322 807 272 l 807 982 q 793 996 807 996 l 619 996 q 606 982 606 996 z "},"V":{"ha":988,"x_min":29,"x_max":958,"o":"m 239 983 q 221 996 235 996 l 39 996 q 29 988 29 996 l 308 82 q 370 14 325 28 q 494 0 415 0 q 615 14 571 0 q 676 82 660 28 l 958 988 q 947 996 958 996 l 767 996 q 749 982 753 996 l 510 206 q 494 181 501 181 q 485 185 488 181 q 478 206 482 190 l 239 983 z "},"W":{"ha":1218,"x_min":44,"x_max":1172,"o":"m 969 983 l 890 288 q 872 206 881 206 q 856 275 864 206 l 774 908 q 729 969 769 933 q 663 996 700 989 l 594 996 q 532 990 550 996 q 440 917 468 969 l 372 263 q 358 200 364 200 q 340 276 351 200 l 247 983 q 235 996 247 996 l 54 996 q 44 981 44 992 l 169 108 q 243 15 178 49 q 354 1 297 1 q 465 15 411 1 q 535 92 518 24 l 610 707 q 632 547 614 704 q 683 82 650 389 q 761 11 707 32 q 872 -1 817 -1 q 931 2 903 -1 q 989 14 960 6 q 1049 94 1040 39 l 1172 985 q 1158 996 1171 996 l 990 996 q 969 983 969 996 z "},"X":{"ha":806,"x_min":49,"x_max":757,"o":"m 394 288 q 398 295 396 290 q 403 300 400 300 q 408 295 406 300 q 411 288 410 290 l 554 14 q 567 1 561 3 q 581 0 574 0 l 735 0 q 751 1 744 0 q 757 11 757 3 q 751 25 757 14 l 519 478 q 513 489 517 482 q 510 499 510 496 q 513 508 510 501 q 519 518 517 514 l 751 971 q 757 985 757 982 q 751 994 757 993 q 735 996 744 996 l 581 996 q 567 994 574 996 q 554 982 561 993 l 411 708 q 408 701 410 706 q 403 696 406 696 q 398 701 400 696 q 394 708 396 706 l 251 982 q 238 994 244 993 q 225 996 232 996 l 71 996 q 55 994 61 996 q 49 985 49 993 q 54 971 49 982 l 286 518 q 292 508 289 514 q 296 499 296 501 q 292 489 296 496 q 286 478 289 482 l 54 25 q 49 11 49 14 q 55 1 49 3 q 71 0 61 0 l 225 0 q 238 1 232 0 q 251 14 244 3 l 394 288 z "},"Y":{"ha":932,"x_min":17,"x_max":907,"o":"m 556 0 q 575 35 575 0 l 575 344 q 608 361 590 349 q 646 400 626 374 l 904 976 q 905 990 907 983 q 893 996 903 996 l 706 996 q 682 976 690 996 l 492 551 q 483 541 486 544 q 469 538 479 538 q 447 551 454 538 l 250 979 q 226 996 243 996 l 35 996 q 28 975 17 996 l 294 400 q 331 361 310 374 q 367 344 353 349 l 367 35 q 388 0 367 0 l 556 0 z "},"Z":{"ha":843,"x_min":49,"x_max":789,"o":"m 551 792 q 551 781 551 783 q 543 771 550 778 l 108 342 q 68 285 88 321 q 49 174 49 249 q 82 55 49 99 q 204 0 115 11 l 775 0 q 789 14 789 0 l 789 176 q 775 190 789 190 l 279 190 q 270 195 274 190 q 267 206 267 200 l 269 213 l 731 669 q 772 747 761 700 q 783 833 783 793 q 740 953 783 911 q 621 996 696 996 l 104 996 q 90 982 90 996 l 90 819 q 104 806 90 806 l 543 806 q 550 800 549 806 q 551 792 551 794 z "},"[":{"ha":364,"x_min":57,"x_max":306,"o":"m 229 14 l 229 982 q 243 996 229 996 l 294 996 q 306 1010 306 996 l 306 1131 q 292 1144 306 1144 l 71 1144 q 57 1131 57 1144 l 57 -136 q 71 -150 57 -150 l 292 -150 q 306 -136 306 -150 l 306 -14 q 292 0 306 0 l 243 0 q 229 14 229 0 z "},"]":{"ha":364,"x_min":56,"x_max":304,"o":"m 132 14 l 132 982 q 118 996 132 996 l 67 996 q 56 1010 56 996 l 56 1131 q 69 1144 56 1144 l 290 1144 q 304 1131 304 1144 l 304 -136 q 290 -150 304 -150 l 69 -150 q 56 -136 56 -150 l 56 -14 q 69 0 56 0 l 118 0 q 132 14 132 0 z "},"^":{"ha":596,"x_min":18,"x_max":565,"o":"m 18 453 l 18 450 q 24 444 18 444 l 143 444 q 151 447 150 444 q 156 456 153 449 l 279 783 q 285 795 281 786 q 293 804 289 804 q 301 795 296 804 q 307 783 306 786 l 428 456 q 432 447 431 449 q 440 444 433 444 l 560 444 q 565 450 565 444 l 565 453 l 385 936 q 293 996 363 996 q 200 936 222 996 l 18 453 z "},"_":{"ha":885,"x_min":57,"x_max":826,"o":"m 826 -283 l 57 -283 l 57 -214 l 826 -214 l 826 -283 z "},"a":{"ha":736,"x_min":49,"x_max":682,"o":"m 83 710 l 83 568 q 97 554 83 554 l 463 554 q 499 535 485 554 q 513 496 513 515 q 491 455 513 472 q 433 438 469 438 l 201 438 q 131 414 160 438 q 83 356 101 390 q 57 282 65 322 q 49 208 49 242 q 54 156 49 190 q 74 86 60 121 q 115 26 89 51 q 183 0 142 0 l 668 0 q 682 14 682 0 l 682 472 q 672 561 682 517 q 638 642 661 606 q 578 701 615 678 q 489 724 542 724 l 97 724 q 83 710 83 724 m 260 163 q 221 181 235 163 q 207 222 207 199 q 219 258 207 242 q 251 274 232 274 l 499 274 q 513 260 513 274 l 513 176 q 499 163 513 163 l 260 163 z "},"b":{"ha":775,"x_min":57,"x_max":754,"o":"m 226 738 l 226 982 q 213 996 226 996 l 71 996 q 57 982 57 996 l 57 14 q 71 0 57 0 l 503 0 q 615 33 567 0 q 693 116 663 65 q 739 231 724 167 q 754 357 754 294 q 740 507 754 439 q 694 623 725 575 q 617 697 664 671 q 503 724 569 724 l 240 724 q 226 738 226 724 m 226 540 q 240 554 226 554 l 392 554 q 470 547 435 554 q 531 517 506 539 q 571 457 557 496 q 585 357 585 418 q 571 264 585 300 q 532 207 557 228 q 471 178 507 186 q 392 169 435 169 l 240 169 q 226 183 226 169 l 226 540 z "},"c":{"ha":697,"x_min":42,"x_max":640,"o":"m 364 169 q 242 213 281 169 q 204 326 204 257 l 204 386 q 244 506 204 457 q 364 554 283 554 l 626 554 q 640 568 640 554 l 640 710 q 626 724 640 724 l 392 724 q 233 702 300 724 q 124 641 167 681 q 62 545 82 601 q 42 418 42 489 l 42 301 q 64 195 42 249 q 128 98 86 142 q 229 27 169 54 q 365 0 289 0 l 626 0 q 640 14 640 0 l 640 156 q 626 169 640 169 l 364 169 z "},"d":{"ha":775,"x_min":19,"x_max":717,"o":"m 547 738 l 547 982 q 561 996 547 996 l 703 996 q 717 982 717 996 l 717 14 q 703 0 717 0 l 271 0 q 157 34 204 0 q 79 121 110 68 q 34 236 49 174 q 19 357 19 299 q 34 507 19 439 q 79 623 49 575 q 157 697 110 671 q 271 724 204 724 l 533 724 q 547 738 547 724 m 547 540 q 533 554 547 554 l 382 554 q 303 547 339 554 q 242 517 268 539 q 203 457 217 496 q 189 357 189 418 q 203 264 189 300 q 242 207 217 228 q 302 178 267 186 q 382 169 338 169 l 533 169 q 547 183 547 169 l 547 540 z "},"e":{"ha":781,"x_min":21,"x_max":735,"o":"m 207 281 l 721 281 q 735 294 735 281 l 735 439 q 716 557 735 504 q 657 647 697 610 q 554 703 617 683 q 406 724 492 724 q 267 706 336 724 q 144 646 199 689 q 55 530 89 603 q 21 346 21 457 q 41 189 21 254 q 109 81 61 124 q 235 19 157 39 q 431 0 314 0 l 665 0 q 679 14 679 0 l 679 156 q 665 169 679 169 l 335 169 q 279 177 306 169 q 234 198 253 185 q 204 228 215 211 q 193 267 193 246 q 207 281 193 281 m 207 443 q 193 457 193 443 q 214 505 193 483 q 266 541 235 526 q 331 564 297 556 q 393 572 365 572 q 529 541 481 572 q 578 457 578 510 q 564 443 578 443 l 207 443 z "},"f":{"ha":521,"x_min":25,"x_max":499,"o":"m 296 738 q 310 724 296 724 l 424 724 q 438 710 438 724 l 438 568 q 424 554 438 554 l 310 554 q 296 540 296 554 l 296 14 q 282 0 296 0 l 140 0 q 126 14 126 0 l 126 540 q 113 554 126 554 l 39 554 q 25 568 25 554 l 25 710 q 39 724 25 724 l 113 724 q 126 738 126 724 l 126 825 q 141 887 126 856 q 178 942 156 918 q 230 981 201 965 q 286 996 258 996 l 485 996 q 499 982 499 996 l 499 840 q 488 826 499 826 l 351 826 q 335 820 344 826 q 317 805 325 814 q 302 785 308 796 q 296 767 296 775 l 296 738 z "},"g":{"ha":783,"x_min":43,"x_max":728,"o":"m 114 -139 l 114 -267 q 128 -281 114 -281 l 544 -281 q 615 -262 582 -281 q 674 -215 649 -243 q 713 -152 699 -186 q 728 -89 728 -118 l 728 656 q 707 708 728 692 q 651 724 686 724 l 331 724 q 201 699 256 724 q 111 633 146 674 q 60 539 76 592 q 43 429 43 486 l 43 340 q 70 195 43 258 q 140 88 97 132 q 237 22 183 44 q 344 0 290 0 l 551 0 l 551 -35 q 551 -63 551 -47 q 545 -92 550 -79 q 531 -115 540 -106 q 503 -125 521 -125 l 128 -125 q 114 -139 114 -125 m 229 357 l 229 393 q 259 511 229 468 q 356 554 289 554 l 538 554 q 551 540 551 554 l 551 183 q 538 169 551 169 l 449 169 q 342 181 385 169 q 275 215 300 192 q 240 274 250 239 q 229 357 229 308 z "},"h":{"ha":738,"x_min":57,"x_max":694,"o":"m 525 439 l 525 14 q 539 0 525 0 l 681 0 q 694 14 694 0 l 694 518 q 675 597 694 560 q 624 663 656 635 q 552 708 593 692 q 468 724 511 724 l 226 724 l 226 982 q 213 996 226 996 l 71 996 q 57 982 57 996 l 57 158 l 57 156 l 57 14 q 71 0 57 0 l 213 0 q 226 14 226 0 l 226 493 q 239 525 226 513 q 270 544 251 538 q 313 552 289 550 q 360 554 336 554 q 477 527 429 554 q 525 439 525 500 z "},"i":{"ha":286,"x_min":57,"x_max":226,"o":"m 57 14 q 71 0 57 0 l 213 0 q 226 14 226 0 l 226 710 q 213 724 226 724 l 71 724 q 57 710 57 724 l 57 14 m 57 982 l 57 840 q 71 826 57 826 l 213 826 q 226 840 226 826 l 226 982 q 213 996 226 996 l 71 996 q 57 982 57 996 z "},"j":{"ha":329,"x_min":-3,"x_max":292,"o":"m 122 710 l 122 -47 q 111 -86 122 -71 q 76 -101 100 -101 l 11 -101 q -3 -115 -3 -101 l -3 -257 q 11 -271 -3 -271 l 113 -271 q 205 -255 178 -271 q 247 -221 232 -239 q 292 -81 292 -169 l 292 710 q 278 724 292 724 l 136 724 q 122 710 122 724 m 122 982 l 122 840 q 136 826 122 826 l 278 826 q 292 840 292 826 l 292 982 q 278 996 292 996 l 136 996 q 122 982 122 996 z "},"k":{"ha":740,"x_min":57,"x_max":733,"o":"m 279 457 q 261 427 268 443 q 254 400 254 411 q 261 369 254 385 q 278 340 268 353 l 519 13 q 543 0 529 0 l 722 0 q 726 10 733 0 l 451 383 q 445 392 449 386 q 442 400 442 397 q 445 407 442 403 q 451 414 449 411 l 711 710 q 716 719 717 715 q 708 724 715 724 l 528 724 q 504 713 513 724 l 279 457 m 57 982 l 57 158 l 57 156 l 57 14 q 71 0 57 0 l 213 0 q 226 14 226 0 l 226 982 q 213 996 226 996 l 71 996 q 57 982 57 996 z "},"l":{"ha":286,"x_min":57,"x_max":226,"o":"m 57 982 l 57 158 l 57 156 l 57 14 q 71 0 57 0 l 213 0 q 226 14 226 0 l 226 156 l 226 158 l 226 982 q 213 996 226 996 l 71 996 q 57 982 57 996 z "},"m":{"ha":1133,"x_min":57,"x_max":1079,"o":"m 57 14 q 71 0 57 0 l 213 0 q 226 14 226 0 l 226 528 q 237 557 226 544 q 263 569 247 569 l 390 569 q 449 547 422 569 q 476 496 476 524 l 476 14 q 490 0 476 0 l 632 0 q 646 14 646 0 l 646 496 q 670 551 646 532 q 719 569 694 569 l 811 569 q 844 563 826 569 q 876 544 861 557 q 900 515 890 532 q 910 475 910 497 l 910 14 q 925 0 910 0 l 1065 0 q 1079 14 1079 0 l 1079 493 q 1060 573 1079 532 q 1008 647 1042 614 q 926 702 974 681 q 822 724 879 724 l 724 724 q 687 722 715 724 q 631 704 658 719 q 605 688 615 697 q 588 669 594 678 q 576 656 581 661 q 568 651 571 651 q 556 660 565 651 q 540 676 547 669 q 496 707 526 690 q 429 724 465 724 l 142 724 q 84 699 111 724 q 57 640 57 675 l 57 14 z "},"n":{"ha":764,"x_min":57,"x_max":710,"o":"m 226 535 q 240 558 226 547 q 268 569 253 569 l 403 569 q 457 565 432 569 q 501 547 482 560 q 530 513 519 535 q 540 456 540 490 l 540 14 q 554 0 540 0 l 694 0 q 710 14 710 0 l 710 485 q 692 574 710 531 q 641 650 674 617 q 565 703 608 683 q 472 724 522 724 l 158 724 q 85 695 114 724 q 57 632 57 667 l 57 56 q 66 17 57 33 q 94 0 75 0 l 188 0 q 226 44 226 0 l 226 535 z "},"o":{"ha":793,"x_min":40,"x_max":749,"o":"m 749 515 q 730 603 749 565 q 681 669 711 642 q 613 710 651 696 q 538 724 575 724 l 257 724 q 173 708 213 724 q 104 665 133 693 q 58 596 75 636 q 40 506 40 556 l 40 261 q 50 166 40 213 q 85 83 60 119 q 151 23 110 46 q 257 0 193 0 l 504 0 q 614 13 568 0 q 690 57 660 25 q 734 143 719 89 q 749 281 749 197 l 749 515 m 578 364 l 578 253 q 541 193 578 217 q 454 169 504 169 l 326 169 q 288 173 308 169 q 249 187 267 176 q 219 215 231 197 q 207 261 207 233 l 207 483 q 217 517 207 503 q 241 539 226 531 q 274 551 256 547 q 310 554 292 554 l 461 554 q 503 550 482 554 q 540 537 524 546 q 567 515 557 528 q 578 485 578 501 l 578 364 z "},"p":{"ha":718,"x_min":57,"x_max":699,"o":"m 226 -14 q 240 0 226 0 l 386 0 q 513 22 456 0 q 612 90 571 44 q 676 207 653 136 q 699 376 699 278 q 685 506 699 443 q 638 617 671 568 q 551 694 606 665 q 414 724 496 724 l 71 724 q 57 710 57 724 l 57 -247 q 71 -261 57 -261 l 213 -261 q 226 -247 226 -261 l 226 -14 m 226 540 q 240 554 226 554 l 424 554 q 465 541 444 554 q 501 508 485 528 q 527 464 517 489 q 538 417 538 439 l 538 310 q 527 261 538 286 q 501 216 517 236 q 465 183 485 196 q 424 169 444 169 l 240 169 q 226 183 226 169 l 226 540 z "},"q":{"ha":719,"x_min":19,"x_max":661,"o":"m 492 -14 q 478 0 492 0 l 332 0 q 205 22 263 0 q 106 90 147 44 q 42 207 65 136 q 19 376 19 278 q 33 506 19 443 q 80 617 47 568 q 167 694 113 665 q 304 724 222 724 l 647 724 q 661 710 661 724 l 661 -247 q 647 -261 661 -261 l 506 -261 q 492 -247 492 -261 l 492 -14 m 492 540 q 478 554 492 554 l 294 554 q 253 541 274 554 q 217 508 233 528 q 191 464 201 489 q 181 417 181 439 l 181 310 q 191 261 181 286 q 217 216 201 236 q 253 183 233 196 q 294 169 274 169 l 478 169 q 492 183 492 169 l 492 540 z "},"r":{"ha":457,"x_min":53,"x_max":439,"o":"m 236 724 q 165 709 199 724 q 107 669 132 694 q 67 611 82 644 q 53 542 53 578 l 53 14 q 67 0 53 0 l 222 0 q 236 14 236 0 l 236 493 q 240 512 236 501 q 252 531 244 522 q 269 547 260 540 q 292 554 279 554 l 425 554 q 439 568 439 554 l 439 710 q 425 724 439 724 l 236 724 z "},"s":{"ha":722,"x_min":51,"x_max":672,"o":"m 51 156 l 51 14 q 65 0 51 0 l 519 0 q 597 24 567 0 q 643 80 626 47 q 666 147 660 113 q 672 201 672 181 q 660 322 672 274 q 624 397 649 369 q 561 437 600 425 q 468 449 522 449 l 265 449 q 234 467 244 449 q 224 503 224 485 q 233 538 224 522 q 265 554 243 554 l 629 554 q 643 568 643 554 l 643 710 q 629 724 643 724 l 329 724 q 208 715 258 724 q 124 683 157 707 q 76 617 92 660 q 60 504 60 574 q 69 417 60 457 q 100 349 79 378 q 156 305 121 321 q 240 289 190 289 l 458 289 q 495 271 486 289 q 504 235 504 253 q 503 213 504 225 q 495 192 501 201 q 478 176 489 182 q 447 169 467 169 l 65 169 q 51 156 51 169 z "},"t":{"ha":471,"x_min":22,"x_max":435,"o":"m 293 540 q 307 554 293 554 l 421 554 q 435 568 435 554 l 435 710 q 421 724 435 724 l 307 724 q 293 738 293 724 l 293 911 q 279 925 293 925 l 138 925 q 124 911 124 925 l 124 738 q 110 724 124 724 l 36 724 q 22 710 22 724 l 22 568 q 36 554 22 554 l 110 554 q 124 540 124 554 l 124 107 q 158 32 124 64 q 246 0 193 0 l 421 0 q 435 14 435 0 l 435 156 q 424 169 435 168 l 307 169 q 293 183 293 169 l 293 540 z "},"u":{"ha":722,"x_min":54,"x_max":668,"o":"m 499 710 l 499 222 q 487 199 499 210 q 456 179 475 188 q 412 167 436 171 q 361 163 388 163 q 310 167 335 163 q 266 179 285 171 q 235 199 247 188 q 224 222 224 210 l 224 710 q 210 724 224 724 l 68 724 q 54 710 54 724 l 54 163 q 81 86 54 118 q 151 33 108 54 q 249 3 194 13 q 361 -7 304 -7 q 472 3 417 -7 q 570 33 526 13 q 641 86 614 54 q 668 163 668 118 l 668 710 q 654 724 668 724 l 513 724 q 499 710 499 724 z "},"v":{"ha":779,"x_min":25,"x_max":753,"o":"m 753 715 l 753 719 q 746 726 753 726 l 586 726 q 575 724 578 726 q 569 713 572 721 l 406 272 q 399 257 404 269 q 388 244 393 244 q 376 257 382 244 q 369 272 371 269 l 208 713 q 203 724 206 721 q 192 726 200 726 l 32 726 q 25 719 25 726 l 25 715 l 265 69 q 388 -10 294 -10 q 511 69 482 -10 l 753 715 z "},"w":{"ha":1074,"x_min":46,"x_max":1026,"o":"m 1026 714 q 1010 724 1026 724 l 872 724 q 860 719 863 724 q 856 708 857 715 l 790 236 q 783 223 789 228 q 771 218 776 218 q 759 223 765 218 q 751 236 753 228 l 717 618 q 699 680 713 657 q 663 715 685 703 q 613 729 642 726 q 554 732 585 732 l 518 732 q 458 729 486 732 q 409 715 431 726 q 374 680 388 703 q 356 618 360 657 l 321 236 q 313 223 319 228 q 301 218 307 218 q 290 223 296 218 q 282 236 283 228 l 217 708 q 213 719 215 715 q 200 724 210 724 l 63 724 q 46 711 46 724 l 131 121 q 145 58 136 83 q 171 16 154 32 q 214 -7 188 0 q 282 -14 240 -14 l 321 -14 q 371 -10 344 -14 q 420 7 397 -6 q 460 44 443 19 q 481 110 476 68 l 518 510 q 526 519 519 517 q 536 521 532 521 q 547 519 540 521 q 554 510 553 517 l 592 110 q 613 44 596 68 q 652 7 629 19 q 701 -10 675 -6 q 751 -14 728 -14 l 790 -14 q 858 -7 832 -14 q 901 16 885 0 q 927 58 918 32 q 942 121 936 83 l 1026 714 z "},"x":{"ha":768,"x_min":46,"x_max":721,"o":"m 718 10 l 506 340 q 493 371 493 360 q 497 388 493 381 q 507 403 501 394 l 703 711 q 707 721 707 717 q 699 724 707 724 l 510 724 q 485 711 492 724 l 407 581 q 398 569 404 575 q 383 563 392 563 q 369 569 375 563 q 360 581 363 575 l 281 711 q 257 724 274 724 l 67 724 q 58 722 58 724 q 63 711 58 717 l 260 403 q 269 388 265 396 q 272 371 272 381 q 261 340 272 356 l 49 10 q 46 3 46 4 q 51 0 46 0 l 229 0 q 246 3 242 0 q 253 11 250 6 l 361 179 q 371 191 365 185 q 383 197 376 197 q 395 191 390 197 q 404 179 400 185 l 514 11 q 521 3 517 6 q 536 0 525 0 l 717 0 q 721 3 721 0 q 718 10 721 4 z "},"y":{"ha":790,"x_min":-3,"x_max":771,"o":"m 376 -269 q 399 -258 394 -269 l 769 708 q 771 714 771 711 q 757 724 771 724 l 590 724 q 575 715 578 724 l 399 250 q 394 237 397 246 q 386 219 390 228 q 376 203 382 210 q 365 196 371 196 q 354 203 360 196 q 344 220 349 211 q 336 238 339 229 q 332 251 333 247 l 185 714 q 168 724 181 724 l 7 724 q -3 714 -3 724 q -1 708 -3 710 l 224 46 q 244 16 231 25 q 269 4 257 7 q 292 1 282 1 q 301 -1 301 1 l 301 -3 l 204 -260 l 204 -264 q 211 -269 204 -269 l 376 -269 z "},"z":{"ha":735,"x_min":51,"x_max":681,"o":"m 207 0 q 85 31 119 0 q 51 117 51 63 q 63 166 51 143 q 96 210 75 189 l 417 529 q 422 542 422 535 q 399 554 422 554 l 82 554 q 68 568 68 554 l 68 710 q 82 724 68 724 l 538 724 q 650 692 619 724 q 681 597 681 661 q 672 547 681 568 q 649 511 664 526 l 336 199 q 326 181 326 189 q 342 169 326 169 l 661 169 q 675 156 675 169 l 675 14 q 661 0 675 0 l 207 0 z "},"{":{"ha":367,"x_min":72,"x_max":306,"o":"m 306 -44 l 306 -129 q 297 -143 306 -143 l 294 -143 q 152 -71 201 -117 q 103 54 103 -25 q 167 318 103 121 q 169 327 168 324 q 169 335 169 331 q 165 361 169 346 q 153 392 160 376 q 139 421 147 408 q 125 440 131 433 q 85 480 97 468 q 72 499 72 492 q 85 515 72 506 q 124 540 97 524 q 142 562 133 546 q 156 596 150 578 q 166 632 163 614 q 169 661 169 650 q 167 678 169 667 q 103 943 103 878 q 152 1067 103 1022 q 294 1139 201 1113 l 297 1139 q 306 1125 306 1139 l 306 1042 q 290 1018 306 1025 q 242 938 242 997 q 274 814 242 906 q 306 694 306 725 q 232 528 306 589 q 206 512 221 518 q 174 499 192 506 q 232 468 211 486 q 306 301 306 410 q 274 183 306 271 q 242 58 242 92 q 290 -22 242 0 q 306 -44 306 -28 z "},"|":{"ha":325,"x_min":57,"x_max":265,"o":"m 57 14 q 71 0 57 0 l 251 0 q 265 14 265 0 l 265 982 q 251 996 265 996 l 71 996 q 57 982 57 996 l 57 14 z "},"}":{"ha":367,"x_min":72,"x_max":306,"o":"m 72 -44 l 72 -129 q 81 -143 72 -143 l 83 -143 q 226 -71 176 -117 q 275 54 275 -25 q 211 318 275 121 q 209 327 210 324 q 208 335 208 331 q 213 361 208 346 q 224 392 218 376 q 238 421 231 408 q 253 440 246 433 q 293 480 281 468 q 306 499 306 492 q 293 515 306 506 q 254 540 281 524 q 236 562 244 546 q 222 596 228 578 q 212 632 215 614 q 208 661 208 650 q 211 678 208 667 q 275 943 275 878 q 226 1067 275 1022 q 83 1139 176 1113 l 81 1139 q 72 1125 72 1139 l 72 1042 q 88 1018 72 1025 q 136 938 136 997 q 104 814 136 906 q 72 694 72 725 q 146 528 72 589 q 172 512 157 518 q 204 499 186 506 q 146 468 167 486 q 72 301 72 410 q 104 183 72 271 q 136 58 136 92 q 88 -22 136 0 q 72 -44 72 -28 z "},"~":{"ha":715,"x_min":44,"x_max":671,"o":"m 671 399 q 603 319 632 343 q 501 282 557 282 q 364 326 440 282 q 207 375 278 375 q 94 276 139 375 l 44 399 q 214 515 107 515 q 288 503 247 515 q 365 471 317 494 q 421 446 396 456 q 503 421 479 421 q 583 467 546 421 q 622 519 593 479 l 671 399 z "},"Ä":{"ha":957,"x_min":29,"x_max":958,"o":"m 29 8 q 40 0 29 0 l 221 0 q 239 14 235 0 l 313 251 q 331 267 317 267 l 657 267 q 675 253 671 267 l 749 13 q 767 0 753 0 l 949 0 q 958 8 958 0 l 679 914 q 617 982 663 968 q 493 996 572 996 q 372 982 417 996 q 311 914 328 968 l 29 8 m 607 474 q 608 469 607 471 q 608 467 608 468 q 597 457 608 457 l 390 457 q 379 467 379 457 q 380 469 379 468 q 381 474 381 471 l 478 790 q 493 815 486 815 q 503 810 500 815 q 510 790 506 806 l 607 474 m 528 1057 q 542 1043 528 1043 l 715 1043 q 729 1057 729 1043 l 729 1231 q 715 1244 729 1244 l 542 1244 q 528 1231 528 1244 l 528 1057 m 260 1057 q 274 1043 260 1043 l 447 1043 q 461 1057 461 1043 l 461 1231 q 447 1244 461 1244 l 274 1244 q 260 1231 260 1244 l 260 1057 z "},"Å":{"ha":957,"x_min":29,"x_max":958,"o":"m 29 8 q 40 0 29 0 l 221 0 q 239 14 235 0 l 313 251 q 331 267 317 267 l 657 267 q 675 253 671 267 l 749 13 q 767 0 753 0 l 949 0 q 958 8 958 0 l 679 914 q 617 982 663 968 q 493 996 572 996 q 372 982 417 996 q 311 914 328 968 l 29 8 m 607 474 q 608 469 607 471 q 608 467 608 468 q 597 457 608 457 l 390 457 q 379 467 379 457 q 380 469 379 468 q 381 474 381 471 l 478 790 q 493 815 486 815 q 503 810 500 815 q 510 790 506 806 l 607 474 m 656 1171 q 607 1067 656 1108 q 494 1026 558 1026 q 383 1067 432 1026 q 335 1171 335 1108 q 383 1274 335 1232 q 494 1317 432 1317 q 607 1275 558 1317 q 656 1171 656 1233 m 572 1171 q 549 1222 572 1201 q 494 1243 525 1243 q 440 1223 463 1243 q 417 1171 417 1203 q 440 1118 417 1139 q 494 1097 463 1097 q 550 1118 528 1097 q 572 1171 572 1139 z "},"Ç":{"ha":821,"x_min":49,"x_max":731,"o":"m 49 297 q 56 234 49 260 q 69 193 63 208 q 138 88 96 132 q 232 25 179 44 q 288 8 256 15 q 361 0 319 0 l 717 0 q 731 14 731 0 l 731 167 q 717 181 731 181 l 357 181 q 281 213 308 185 q 250 290 254 242 l 250 642 q 276 759 250 714 q 357 815 303 804 l 717 815 q 731 829 731 815 l 731 982 q 717 996 731 996 l 349 996 q 221 968 281 996 q 118 890 161 940 q 88 851 103 872 q 65 799 74 829 q 49 686 49 746 l 49 297 m 651 -179 q 590 -285 651 -247 q 467 -317 538 -317 q 307 -286 399 -317 q 300 -276 300 -283 q 301 -269 300 -272 l 324 -224 q 333 -217 326 -217 q 338 -218 336 -217 q 400 -235 374 -232 q 442 -237 426 -237 q 490 -223 468 -237 q 513 -183 513 -208 q 454 -133 513 -133 q 432 -135 443 -133 q 407 -140 421 -137 q 403 -141 404 -140 q 400 -142 403 -142 q 388 -136 393 -142 l 372 -124 q 369 -115 369 -122 q 372 -104 369 -108 l 439 -8 q 457 0 444 0 l 521 0 q 526 -4 526 0 q 524 -11 526 -6 l 489 -58 q 485 -68 485 -65 q 492 -72 485 -72 q 501 -71 497 -72 q 511 -69 507 -69 q 521 -69 517 -69 q 611 -96 576 -69 q 651 -179 651 -128 z "},"É":{"ha":776,"x_min":56,"x_max":744,"o":"m 56 146 q 67 94 56 119 q 99 47 79 68 q 143 13 118 26 q 193 0 168 0 l 731 0 q 744 14 744 0 l 744 167 q 731 181 744 181 l 271 181 q 257 194 257 181 l 257 396 q 271 410 257 410 l 697 410 q 711 424 711 410 l 711 583 q 697 597 711 597 l 271 597 q 257 611 257 597 l 257 800 q 271 815 257 815 l 731 815 q 744 829 744 815 l 744 982 q 726 996 744 996 l 256 996 q 107 937 158 996 q 56 783 56 878 l 56 146 m 236 1065 q 225 1054 229 1058 q 221 1047 221 1050 q 235 1033 221 1033 q 254 1034 239 1033 q 274 1035 269 1035 q 474 1066 399 1049 q 591 1104 550 1083 q 644 1150 632 1125 q 657 1203 657 1175 q 636 1246 657 1229 q 583 1263 615 1263 q 505 1241 553 1263 q 406 1188 457 1219 q 309 1124 356 1157 q 236 1065 263 1090 z "},"Ñ":{"ha":929,"x_min":56,"x_max":853,"o":"m 56 14 q 69 0 56 0 l 243 0 q 257 14 257 0 l 257 793 q 267 806 257 806 q 279 793 275 806 l 467 103 q 485 65 472 83 q 514 33 497 47 q 549 9 531 18 q 585 0 568 0 l 713 0 q 767 15 742 0 q 812 53 793 29 q 842 104 831 76 q 853 160 853 132 l 853 982 q 839 996 853 996 l 665 996 q 651 982 651 996 l 651 206 q 642 192 651 192 q 628 206 632 192 l 442 892 q 388 968 428 940 q 261 996 349 996 q 162 984 201 996 q 99 948 122 972 q 65 885 75 924 q 56 792 56 846 l 56 14 m 756 1240 q 767 1232 767 1240 l 767 1229 q 706 1087 744 1136 q 601 1038 668 1038 q 379 1101 546 1038 q 365 1104 368 1104 q 332 1088 346 1104 q 311 1049 318 1071 q 294 1035 307 1035 l 228 1035 q 213 1047 213 1035 q 213 1049 213 1049 q 214 1053 214 1050 q 226 1103 224 1096 q 253 1167 238 1143 q 393 1240 303 1240 q 493 1208 418 1240 q 597 1176 569 1176 q 665 1225 647 1176 q 685 1240 671 1240 l 756 1240 z "},"Ü":{"ha":890,"x_min":54,"x_max":807,"o":"m 606 982 l 606 306 q 598 266 606 288 q 577 226 590 244 q 544 194 564 207 q 501 181 525 181 l 356 181 q 312 194 331 181 q 281 226 293 207 q 262 266 268 244 q 256 304 256 288 l 256 982 q 242 996 256 996 l 68 996 q 54 982 54 996 l 54 268 q 65 195 54 229 q 93 131 75 161 q 138 76 111 103 q 188 38 158 56 q 255 10 215 19 q 340 0 294 0 l 503 0 q 569 6 539 0 q 625 21 600 13 q 678 45 650 31 q 726 81 706 60 q 762 126 746 101 q 786 172 778 150 q 801 234 796 196 q 807 322 807 272 l 807 982 q 793 996 807 996 l 619 996 q 606 982 606 996 m 486 1046 q 500 1032 486 1032 l 674 1032 q 688 1046 688 1032 l 688 1219 q 674 1233 688 1233 l 500 1233 q 486 1219 486 1233 l 486 1046 m 218 1046 q 232 1032 218 1032 l 406 1032 q 419 1046 419 1032 l 419 1219 q 406 1233 419 1233 l 232 1233 q 218 1219 218 1233 l 218 1046 z "},"á":{"ha":736,"x_min":49,"x_max":682,"o":"m 83 710 l 83 568 q 97 554 83 554 l 463 554 q 499 535 485 554 q 513 496 513 515 q 491 455 513 472 q 433 438 469 438 l 201 438 q 131 414 160 438 q 83 356 101 390 q 57 282 65 322 q 49 208 49 242 q 54 156 49 190 q 74 86 60 121 q 115 26 89 51 q 183 0 142 0 l 668 0 q 682 14 682 0 l 682 472 q 672 561 682 517 q 638 642 661 606 q 578 701 615 678 q 489 724 542 724 l 97 724 q 83 710 83 724 m 260 163 q 221 181 235 163 q 207 222 207 199 q 219 258 207 242 q 251 274 232 274 l 499 274 q 513 260 513 274 l 513 176 q 499 163 513 163 l 260 163 m 151 782 q 140 771 144 775 q 136 764 136 767 q 150 750 136 750 q 169 751 154 750 q 189 751 185 751 q 390 783 314 765 q 506 821 465 800 q 560 867 547 842 q 572 919 572 892 q 551 963 572 946 q 499 979 531 979 q 420 958 468 979 q 322 905 372 936 q 224 840 271 874 q 151 782 178 807 z "},"à":{"ha":736,"x_min":49,"x_max":682,"o":"m 83 710 l 83 568 q 97 554 83 554 l 463 554 q 499 535 485 554 q 513 496 513 515 q 491 455 513 472 q 433 438 469 438 l 201 438 q 131 414 160 438 q 83 356 101 390 q 57 282 65 322 q 49 208 49 242 q 54 156 49 190 q 74 86 60 121 q 115 26 89 51 q 183 0 142 0 l 668 0 q 682 14 682 0 l 682 472 q 672 561 682 517 q 638 642 661 606 q 578 701 615 678 q 489 724 542 724 l 97 724 q 83 710 83 724 m 260 163 q 221 181 235 163 q 207 222 207 199 q 219 258 207 242 q 251 274 232 274 l 499 274 q 513 260 513 274 l 513 176 q 499 163 513 163 l 260 163 m 589 782 q 600 771 596 775 q 604 764 604 767 q 590 750 604 750 q 571 751 586 750 q 551 751 556 751 q 351 783 426 765 q 234 821 275 800 q 181 867 193 842 q 168 919 168 892 q 189 963 168 946 q 242 979 210 979 q 320 958 272 979 q 419 905 368 936 q 515 840 469 874 q 589 782 561 807 z "},"â":{"ha":731,"x_min":49,"x_max":682,"o":"m 83 710 l 83 568 q 97 554 83 554 l 463 554 q 499 535 485 554 q 513 496 513 515 q 491 455 513 472 q 433 438 469 438 l 201 438 q 131 414 160 438 q 83 356 101 390 q 57 282 65 322 q 49 208 49 242 q 54 156 49 190 q 74 86 60 121 q 115 26 89 51 q 183 0 142 0 l 668 0 q 682 14 682 0 l 682 472 q 672 561 682 517 q 638 642 661 606 q 578 701 615 678 q 489 724 542 724 l 97 724 q 83 710 83 724 m 260 163 q 221 181 235 163 q 207 222 207 199 q 219 258 207 242 q 251 274 232 274 l 499 274 q 513 260 513 274 l 513 176 q 499 163 513 163 l 260 163 m 619 781 q 622 774 622 778 q 614 767 622 767 l 476 767 q 463 769 468 767 q 454 776 458 772 l 383 861 q 375 871 379 867 q 368 875 371 875 q 361 871 365 875 q 353 861 357 867 l 283 778 q 258 767 275 767 l 121 767 q 114 772 114 767 q 118 781 114 776 l 263 956 q 276 966 269 963 q 293 969 282 969 l 447 969 q 460 967 456 969 q 471 957 465 964 l 619 781 z "},"ä":{"ha":736,"x_min":49,"x_max":682,"o":"m 83 710 l 83 568 q 97 554 83 554 l 463 554 q 499 535 485 554 q 513 496 513 515 q 491 455 513 472 q 433 438 469 438 l 201 438 q 131 414 160 438 q 83 356 101 390 q 57 282 65 322 q 49 208 49 242 q 54 156 49 190 q 74 86 60 121 q 115 26 89 51 q 183 0 142 0 l 668 0 q 682 14 682 0 l 682 472 q 672 561 682 517 q 638 642 661 606 q 578 701 615 678 q 489 724 542 724 l 97 724 q 83 710 83 724 m 260 163 q 221 181 235 163 q 207 222 207 199 q 219 258 207 242 q 251 274 232 274 l 499 274 q 513 260 513 274 l 513 176 q 499 163 513 163 l 260 163 m 324 775 q 338 761 324 761 l 511 761 q 525 775 525 761 l 525 949 q 511 963 525 963 l 338 963 q 324 949 324 963 l 324 775 m 56 775 q 69 761 56 761 l 243 761 q 257 775 257 761 l 257 949 q 243 963 257 963 l 69 963 q 56 949 56 963 l 56 775 z "},"ã":{"ha":736,"x_min":49,"x_max":682,"o":"m 83 710 l 83 568 q 97 554 83 554 l 463 554 q 499 535 485 554 q 513 496 513 515 q 491 455 513 472 q 433 438 469 438 l 201 438 q 131 414 160 438 q 83 356 101 390 q 57 282 65 322 q 49 208 49 242 q 54 156 49 190 q 74 86 60 121 q 115 26 89 51 q 183 0 142 0 l 668 0 q 682 14 682 0 l 682 472 q 672 561 682 517 q 638 642 661 606 q 578 701 615 678 q 489 724 542 724 l 97 724 q 83 710 83 724 m 260 163 q 221 181 235 163 q 207 222 207 199 q 219 258 207 242 q 251 274 232 274 l 499 274 q 513 260 513 274 l 513 176 q 499 163 513 163 l 260 163 m 586 967 q 597 958 597 967 l 597 956 q 537 813 575 863 q 432 764 499 764 q 210 828 376 764 q 196 831 199 831 q 163 814 176 831 q 142 775 149 797 q 125 761 138 761 l 58 761 q 43 774 43 761 q 44 776 43 775 q 44 779 44 776 q 57 829 54 822 q 83 893 68 869 q 224 967 133 967 q 324 935 249 967 q 428 903 400 903 q 496 951 478 903 q 515 967 501 967 l 586 967 z "},"å":{"ha":736,"x_min":49,"x_max":682,"o":"m 83 710 l 83 568 q 97 554 83 554 l 463 554 q 499 535 485 554 q 513 496 513 515 q 491 455 513 472 q 433 438 469 438 l 201 438 q 131 414 160 438 q 83 356 101 390 q 57 282 65 322 q 49 208 49 242 q 54 156 49 190 q 74 86 60 121 q 115 26 89 51 q 183 0 142 0 l 668 0 q 682 14 682 0 l 682 472 q 672 561 682 517 q 638 642 661 606 q 578 701 615 678 q 489 724 542 724 l 97 724 q 83 710 83 724 m 260 163 q 221 181 235 163 q 207 222 207 199 q 219 258 207 242 q 251 274 232 274 l 499 274 q 513 260 513 274 l 513 176 q 499 163 513 163 l 260 163 m 482 872 q 442 786 482 820 q 348 751 401 751 q 255 786 295 751 q 214 872 214 820 q 255 959 214 924 q 348 995 295 995 q 442 960 401 995 q 482 872 482 925 m 413 872 q 393 915 413 898 q 348 933 373 933 q 302 916 321 933 q 283 872 283 899 q 302 828 283 846 q 348 811 321 811 q 394 828 376 811 q 413 872 413 846 z "},"ç":{"ha":697,"x_min":42,"x_max":640,"o":"m 364 169 q 242 213 281 169 q 204 326 204 257 l 204 386 q 244 506 204 457 q 364 554 283 554 l 626 554 q 640 568 640 554 l 640 710 q 626 724 640 724 l 392 724 q 233 702 300 724 q 124 641 167 681 q 62 545 82 601 q 42 418 42 489 l 42 301 q 64 195 42 249 q 128 98 86 142 q 229 27 169 54 q 365 0 289 0 l 626 0 q 640 14 640 0 l 640 156 q 626 169 640 169 l 364 169 m 564 -179 q 503 -285 564 -247 q 379 -317 450 -317 q 219 -286 311 -317 q 213 -276 213 -283 q 214 -269 213 -272 l 236 -224 q 246 -217 239 -217 q 250 -218 249 -217 q 313 -235 286 -232 q 354 -237 339 -237 q 403 -223 381 -237 q 425 -183 425 -208 q 367 -133 425 -133 q 344 -135 356 -133 q 319 -140 333 -137 q 316 -141 317 -140 q 313 -142 315 -142 q 300 -136 306 -142 l 285 -124 q 282 -115 282 -122 q 285 -104 282 -108 l 351 -8 q 369 0 357 0 l 433 0 q 439 -4 439 0 q 436 -11 439 -6 l 401 -58 q 397 -68 397 -65 q 404 -72 397 -72 q 414 -71 410 -72 q 424 -69 419 -69 q 433 -69 429 -69 q 524 -96 489 -69 q 564 -179 564 -128 z "},"é":{"ha":803,"x_min":21,"x_max":735,"o":"m 207 281 l 721 281 q 735 294 735 281 l 735 439 q 716 557 735 504 q 657 647 697 610 q 554 703 617 683 q 406 724 492 724 q 267 706 336 724 q 144 646 199 689 q 55 530 89 603 q 21 346 21 457 q 41 189 21 254 q 109 81 61 124 q 235 19 157 39 q 431 0 314 0 l 665 0 q 679 14 679 0 l 679 156 q 665 169 679 169 l 335 169 q 279 177 306 169 q 234 198 253 185 q 204 228 215 211 q 193 267 193 246 q 207 281 193 281 m 207 443 q 193 457 193 443 q 214 505 193 483 q 266 541 235 526 q 331 564 297 556 q 393 572 365 572 q 529 541 481 572 q 578 457 578 510 q 564 443 578 443 l 207 443 m 206 782 q 194 771 199 775 q 190 764 190 767 q 204 750 190 750 q 224 751 208 750 q 243 751 239 751 q 444 783 368 765 q 560 821 519 800 q 614 867 601 842 q 626 919 626 892 q 606 963 626 946 q 553 979 585 979 q 474 958 522 979 q 376 905 426 936 q 278 840 325 874 q 206 782 232 807 z "},"è":{"ha":803,"x_min":21,"x_max":735,"o":"m 207 281 l 721 281 q 735 294 735 281 l 735 439 q 716 557 735 504 q 657 647 697 610 q 554 703 617 683 q 406 724 492 724 q 267 706 336 724 q 144 646 199 689 q 55 530 89 603 q 21 346 21 457 q 41 189 21 254 q 109 81 61 124 q 235 19 157 39 q 431 0 314 0 l 665 0 q 679 14 679 0 l 679 156 q 665 169 679 169 l 335 169 q 279 177 306 169 q 234 198 253 185 q 204 228 215 211 q 193 267 193 246 q 207 281 193 281 m 207 443 q 193 457 193 443 q 214 505 193 483 q 266 541 235 526 q 331 564 297 556 q 393 572 365 572 q 529 541 481 572 q 578 457 578 510 q 564 443 578 443 l 207 443 m 631 782 q 642 771 638 775 q 646 764 646 767 q 632 750 646 750 q 613 751 628 750 q 593 751 597 751 q 392 783 468 765 q 276 821 317 800 q 222 867 235 842 q 210 919 210 892 q 231 963 210 946 q 283 979 251 979 q 362 958 314 979 q 460 905 410 936 q 557 840 511 874 q 631 782 603 807 z "},"ê":{"ha":803,"x_min":21,"x_max":735,"o":"m 207 281 l 721 281 q 735 294 735 281 l 735 439 q 716 557 735 504 q 657 647 697 610 q 554 703 617 683 q 406 724 492 724 q 267 706 336 724 q 144 646 199 689 q 55 530 89 603 q 21 346 21 457 q 41 189 21 254 q 109 81 61 124 q 235 19 157 39 q 431 0 314 0 l 665 0 q 679 14 679 0 l 679 156 q 665 169 679 169 l 335 169 q 279 177 306 169 q 234 198 253 185 q 204 228 215 211 q 193 267 193 246 q 207 281 193 281 m 207 443 q 193 457 193 443 q 214 505 193 483 q 266 541 235 526 q 331 564 297 556 q 393 572 365 572 q 529 541 481 572 q 578 457 578 510 q 564 443 578 443 l 207 443 m 689 781 q 692 774 692 778 q 683 767 692 767 l 546 767 q 533 769 538 767 q 524 776 528 772 l 453 861 q 444 871 449 867 q 438 875 440 875 q 431 871 435 875 q 422 861 426 867 l 353 778 q 328 767 344 767 l 190 767 q 183 772 183 767 q 188 781 183 776 l 332 956 q 345 966 339 963 q 363 969 351 969 l 517 969 q 530 967 525 969 q 540 957 535 964 l 689 781 z "},"ë":{"ha":803,"x_min":21,"x_max":735,"o":"m 207 281 l 721 281 q 735 294 735 281 l 735 439 q 716 557 735 504 q 657 647 697 610 q 554 703 617 683 q 406 724 492 724 q 267 706 336 724 q 144 646 199 689 q 55 530 89 603 q 21 346 21 457 q 41 189 21 254 q 109 81 61 124 q 235 19 157 39 q 431 0 314 0 l 665 0 q 679 14 679 0 l 679 156 q 665 169 679 169 l 335 169 q 279 177 306 169 q 234 198 253 185 q 204 228 215 211 q 193 267 193 246 q 207 281 193 281 m 207 443 q 193 457 193 443 q 214 505 193 483 q 266 541 235 526 q 331 564 297 556 q 393 572 365 572 q 529 541 481 572 q 578 457 578 510 q 564 443 578 443 l 207 443 m 324 768 q 338 754 324 754 l 511 754 q 525 768 525 754 l 525 942 q 511 956 525 956 l 338 956 q 324 942 324 956 l 324 768 m 56 768 q 69 754 56 754 l 243 754 q 257 768 257 754 l 257 942 q 243 956 257 956 l 69 956 q 56 942 56 956 l 56 768 z "},"í":{"ha":286,"x_min":-83,"x_max":353,"o":"m 57 14 q 71 0 57 0 l 213 0 q 226 14 226 0 l 226 710 q 213 724 226 724 l 71 724 q 57 710 57 724 l 57 14 m -68 782 q -79 771 -75 775 q -83 764 -83 767 q -69 750 -83 750 q -50 751 -65 750 q -31 751 -35 751 q 170 783 94 765 q 287 821 246 800 q 340 867 328 842 q 353 919 353 892 q 332 963 353 946 q 279 979 311 979 q 201 958 249 979 q 102 905 153 936 q 5 840 51 874 q -68 782 -42 807 z "},"ì":{"ha":286,"x_min":-67,"x_max":369,"o":"m 57 14 q 71 0 57 0 l 213 0 q 226 14 226 0 l 226 710 q 213 724 226 724 l 71 724 q 57 710 57 724 l 57 14 m 354 782 q 365 771 361 775 q 369 764 369 767 q 356 750 369 750 q 336 751 351 750 q 317 751 321 751 q 116 783 192 765 q -1 821 40 800 q -54 867 -42 842 q -67 919 -67 892 q -46 963 -67 946 q 7 979 -25 979 q 85 958 38 979 q 184 905 133 936 q 281 840 235 874 q 354 782 326 807 z "},"î":{"ha":286,"x_min":-111,"x_max":397,"o":"m 57 14 q 71 0 57 0 l 213 0 q 226 14 226 0 l 226 710 q 213 724 226 724 l 71 724 q 57 710 57 724 l 57 14 m 394 781 q 397 774 397 778 q 389 767 397 767 l 251 767 q 238 769 243 767 q 229 776 233 772 l 158 861 q 150 871 154 867 q 143 875 146 875 q 136 871 140 875 q 128 861 132 867 l 58 778 q 33 767 50 767 l -104 767 q -111 772 -111 767 q -107 781 -111 776 l 38 956 q 51 966 44 963 q 68 969 57 969 l 222 969 q 235 967 231 969 q 246 957 240 964 l 394 781 z "},"ï":{"ha":286,"x_min":-25,"x_max":331,"o":"m 57 14 q 71 0 57 0 l 213 0 q 226 14 226 0 l 226 710 q 213 724 226 724 l 71 724 q 57 710 57 724 l 57 14 m 178 813 q 189 803 178 803 l 320 803 q 331 813 331 803 l 331 945 q 320 955 331 955 l 189 955 q 178 945 178 955 l 178 813 m -25 813 q -14 803 -25 803 l 117 803 q 128 813 128 803 l 128 945 q 117 955 128 955 l -14 955 q -25 945 -25 955 l -25 813 z "},"ñ":{"ha":764,"x_min":57,"x_max":710,"o":"m 226 535 q 240 558 226 547 q 268 569 253 569 l 403 569 q 457 565 432 569 q 501 547 482 560 q 530 513 519 535 q 540 456 540 490 l 540 14 q 554 0 540 0 l 694 0 q 710 14 710 0 l 710 485 q 692 574 710 531 q 641 650 674 617 q 565 703 608 683 q 472 724 522 724 l 158 724 q 85 695 114 724 q 57 632 57 667 l 57 56 q 66 17 57 33 q 94 0 75 0 l 188 0 q 226 44 226 0 l 226 535 m 586 978 q 597 969 597 978 l 597 967 q 537 824 575 874 q 432 775 499 775 q 210 839 376 775 q 196 842 199 842 q 163 825 176 842 q 142 786 149 808 q 125 772 138 772 l 58 772 q 43 785 43 772 q 44 787 43 786 q 44 790 44 788 q 57 840 54 833 q 83 904 68 881 q 224 978 133 978 q 324 946 249 978 q 428 914 400 914 q 496 963 478 914 q 515 978 501 978 l 586 978 z "},"ó":{"ha":771,"x_min":40,"x_max":749,"o":"m 749 515 q 730 603 749 565 q 681 669 711 642 q 613 710 651 696 q 538 724 575 724 l 257 724 q 173 708 213 724 q 104 665 133 693 q 58 596 75 636 q 40 506 40 556 l 40 261 q 50 166 40 213 q 85 83 60 119 q 151 23 110 46 q 257 0 193 0 l 504 0 q 614 13 568 0 q 690 57 660 25 q 734 143 719 89 q 749 281 749 197 l 749 515 m 578 364 l 578 253 q 541 193 578 217 q 454 169 504 169 l 326 169 q 288 173 308 169 q 249 187 267 176 q 219 215 231 197 q 207 261 207 233 l 207 483 q 217 517 207 503 q 241 539 226 531 q 274 551 256 547 q 310 554 292 554 l 461 554 q 503 550 482 554 q 540 537 524 546 q 567 515 557 528 q 578 485 578 501 l 578 364 m 188 782 q 176 771 181 775 q 172 764 172 767 q 186 750 172 750 q 206 751 190 750 q 225 751 221 751 q 426 783 350 765 q 542 821 501 800 q 596 867 583 842 q 608 919 608 892 q 588 963 608 946 q 535 979 567 979 q 456 958 504 979 q 358 905 408 936 q 260 840 307 874 q 188 782 214 807 z "},"ò":{"ha":771,"x_min":40,"x_max":749,"o":"m 749 515 q 730 603 749 565 q 681 669 711 642 q 613 710 651 696 q 538 724 575 724 l 257 724 q 173 708 213 724 q 104 665 133 693 q 58 596 75 636 q 40 506 40 556 l 40 261 q 50 166 40 213 q 85 83 60 119 q 151 23 110 46 q 257 0 193 0 l 504 0 q 614 13 568 0 q 690 57 660 25 q 734 143 719 89 q 749 281 749 197 l 749 515 m 578 364 l 578 253 q 541 193 578 217 q 454 169 504 169 l 326 169 q 288 173 308 169 q 249 187 267 176 q 219 215 231 197 q 207 261 207 233 l 207 483 q 217 517 207 503 q 241 539 226 531 q 274 551 256 547 q 310 554 292 554 l 461 554 q 503 550 482 554 q 540 537 524 546 q 567 515 557 528 q 578 485 578 501 l 578 364 m 613 782 q 624 771 619 775 q 628 764 628 767 q 614 750 628 750 q 594 751 610 750 q 575 751 579 751 q 374 783 450 765 q 258 821 299 800 q 204 867 217 842 q 192 919 192 892 q 213 963 192 946 q 265 979 233 979 q 344 958 296 979 q 442 905 392 936 q 539 840 493 874 q 613 782 585 807 z "},"ô":{"ha":771,"x_min":40,"x_max":749,"o":"m 749 515 q 730 603 749 565 q 681 669 711 642 q 613 710 651 696 q 538 724 575 724 l 257 724 q 173 708 213 724 q 104 665 133 693 q 58 596 75 636 q 40 506 40 556 l 40 261 q 50 166 40 213 q 85 83 60 119 q 151 23 110 46 q 257 0 193 0 l 504 0 q 614 13 568 0 q 690 57 660 25 q 734 143 719 89 q 749 281 749 197 l 749 515 m 578 364 l 578 253 q 541 193 578 217 q 454 169 504 169 l 326 169 q 288 173 308 169 q 249 187 267 176 q 219 215 231 197 q 207 261 207 233 l 207 483 q 217 517 207 503 q 241 539 226 531 q 274 551 256 547 q 310 554 292 554 l 461 554 q 503 550 482 554 q 540 537 524 546 q 567 515 557 528 q 578 485 578 501 l 578 364 m 657 781 q 660 774 660 778 q 651 767 660 767 l 514 767 q 501 769 506 767 q 492 776 496 772 l 421 861 q 413 871 417 867 q 406 875 408 875 q 399 871 403 875 q 390 861 394 867 l 321 778 q 296 767 313 767 l 158 767 q 151 772 151 767 q 156 781 151 776 l 300 956 q 313 966 307 963 q 331 969 319 969 l 485 969 q 498 967 493 969 q 508 957 503 964 l 657 781 z "},"ö":{"ha":771,"x_min":40,"x_max":749,"o":"m 749 515 q 730 603 749 565 q 681 669 711 642 q 613 710 651 696 q 538 724 575 724 l 257 724 q 173 708 213 724 q 104 665 133 693 q 58 596 75 636 q 40 506 40 556 l 40 261 q 50 166 40 213 q 85 83 60 119 q 151 23 110 46 q 257 0 193 0 l 504 0 q 614 13 568 0 q 690 57 660 25 q 734 143 719 89 q 749 281 749 197 l 749 515 m 578 364 l 578 253 q 541 193 578 217 q 454 169 504 169 l 326 169 q 288 173 308 169 q 249 187 267 176 q 219 215 231 197 q 207 261 207 233 l 207 483 q 217 517 207 503 q 241 539 226 531 q 274 551 256 547 q 310 554 292 554 l 461 554 q 503 550 482 554 q 540 537 524 546 q 567 515 557 528 q 578 485 578 501 l 578 364 m 439 783 q 451 770 439 770 l 610 770 q 623 783 623 770 l 623 941 q 610 954 623 954 l 451 954 q 439 941 439 954 l 439 783 m 194 783 q 206 770 194 770 l 365 770 q 378 783 378 770 l 378 941 q 365 954 378 954 l 206 954 q 194 941 194 954 l 194 783 z "},"õ":{"ha":771,"x_min":40,"x_max":749,"o":"m 749 515 q 730 603 749 565 q 681 669 711 642 q 613 710 651 696 q 538 724 575 724 l 257 724 q 173 708 213 724 q 104 665 133 693 q 58 596 75 636 q 40 506 40 556 l 40 261 q 50 166 40 213 q 85 83 60 119 q 151 23 110 46 q 257 0 193 0 l 504 0 q 614 13 568 0 q 690 57 660 25 q 734 143 719 89 q 749 281 749 197 l 749 515 m 578 364 l 578 253 q 541 193 578 217 q 454 169 504 169 l 326 169 q 288 173 308 169 q 249 187 267 176 q 219 215 231 197 q 207 261 207 233 l 207 483 q 217 517 207 503 q 241 539 226 531 q 274 551 256 547 q 310 554 292 554 l 461 554 q 503 550 482 554 q 540 537 524 546 q 567 515 557 528 q 578 485 578 501 l 578 364 m 586 978 q 597 969 597 978 l 597 967 q 537 824 575 874 q 432 775 499 775 q 210 839 376 775 q 196 842 199 842 q 163 825 176 842 q 142 786 149 808 q 125 772 138 772 l 58 772 q 43 785 43 772 q 44 787 43 786 q 44 790 44 788 q 57 840 54 833 q 83 904 68 881 q 224 978 133 978 q 324 946 249 978 q 428 914 400 914 q 496 963 478 914 q 515 978 501 978 l 586 978 z "},"ú":{"ha":704,"x_min":54,"x_max":668,"o":"m 499 710 l 499 222 q 487 199 499 210 q 456 179 475 188 q 412 167 436 171 q 361 163 388 163 q 310 167 335 163 q 266 179 285 171 q 235 199 247 188 q 224 222 224 210 l 224 710 q 210 724 224 724 l 68 724 q 54 710 54 724 l 54 163 q 81 86 54 118 q 151 33 108 54 q 249 3 194 13 q 361 -7 304 -7 q 472 3 417 -7 q 570 33 526 13 q 641 86 614 54 q 668 163 668 118 l 668 710 q 654 724 668 724 l 513 724 q 499 710 499 724 m 149 782 q 138 771 142 775 q 133 764 133 767 q 147 750 133 750 q 167 751 151 750 q 186 751 182 751 q 387 783 311 765 q 503 821 463 800 q 557 867 544 842 q 569 919 569 892 q 549 963 569 946 q 496 979 528 979 q 417 958 465 979 q 319 905 369 936 q 222 840 268 874 q 149 782 175 807 z "},"ù":{"ha":704,"x_min":54,"x_max":668,"o":"m 499 710 l 499 222 q 487 199 499 210 q 456 179 475 188 q 412 167 436 171 q 361 163 388 163 q 310 167 335 163 q 266 179 285 171 q 235 199 247 188 q 224 222 224 210 l 224 710 q 210 724 224 724 l 68 724 q 54 710 54 724 l 54 163 q 81 86 54 118 q 151 33 108 54 q 249 3 194 13 q 361 -7 304 -7 q 472 3 417 -7 q 570 33 526 13 q 641 86 614 54 q 668 163 668 118 l 668 710 q 654 724 668 724 l 513 724 q 499 710 499 724 m 563 782 q 574 771 569 775 q 578 764 578 767 q 564 750 578 750 q 544 751 560 750 q 525 751 529 751 q 324 783 400 765 q 208 821 249 800 q 154 867 167 842 q 142 919 142 892 q 163 963 142 946 q 215 979 183 979 q 294 958 246 979 q 392 905 342 936 q 489 840 443 874 q 563 782 535 807 z "},"û":{"ha":704,"x_min":54,"x_max":668,"o":"m 499 710 l 499 222 q 487 199 499 210 q 456 179 475 188 q 412 167 436 171 q 361 163 388 163 q 310 167 335 163 q 266 179 285 171 q 235 199 247 188 q 224 222 224 210 l 224 710 q 210 724 224 724 l 68 724 q 54 710 54 724 l 54 163 q 81 86 54 118 q 151 33 108 54 q 249 3 194 13 q 361 -7 304 -7 q 472 3 417 -7 q 570 33 526 13 q 641 86 614 54 q 668 163 668 118 l 668 710 q 654 724 668 724 l 513 724 q 499 710 499 724 m 611 781 q 614 774 614 778 q 606 767 614 767 l 468 767 q 455 769 460 767 q 446 776 450 772 l 375 861 q 367 871 371 867 q 360 875 363 875 q 353 871 357 875 q 344 861 349 867 l 275 778 q 250 767 267 767 l 113 767 q 106 772 106 767 q 110 781 106 776 l 254 956 q 267 966 261 963 q 285 969 274 969 l 439 969 q 452 967 447 969 q 463 957 457 964 l 611 781 z "},"ü":{"ha":704,"x_min":54,"x_max":668,"o":"m 499 710 l 499 222 q 487 199 499 210 q 456 179 475 188 q 412 167 436 171 q 361 163 388 163 q 310 167 335 163 q 266 179 285 171 q 235 199 247 188 q 224 222 224 210 l 224 710 q 210 724 224 724 l 68 724 q 54 710 54 724 l 54 163 q 81 86 54 118 q 151 33 108 54 q 249 3 194 13 q 361 -7 304 -7 q 472 3 417 -7 q 570 33 526 13 q 641 86 614 54 q 668 163 668 118 l 668 710 q 654 724 668 724 l 513 724 q 499 710 499 724 m 396 787 q 409 775 396 775 l 562 775 q 574 787 574 775 l 574 940 q 562 953 574 953 l 409 953 q 396 940 396 953 l 396 787 m 160 787 q 172 775 160 775 l 325 775 q 337 787 337 775 l 337 940 q 325 953 337 953 l 172 953 q 160 940 160 953 l 160 787 z "},"":{"ha":710,"x_min":11,"x_max":697,"o":"m 456 982 q 442 996 456 996 l 268 996 q 254 982 254 996 l 254 738 q 240 724 254 724 l 25 724 q 11 710 11 724 l 11 568 q 25 554 11 554 l 240 554 q 254 540 254 554 l 254 -222 q 268 -236 254 -236 l 442 -236 q 456 -222 456 -236 l 456 540 q 469 554 456 554 l 683 554 q 697 568 697 554 l 697 710 q 683 724 697 724 l 469 724 q 456 738 456 724 l 456 982 z "},"°":{"ha":525,"x_min":39,"x_max":485,"o":"m 485 792 q 419 634 485 699 q 261 569 354 569 q 105 635 171 569 q 39 792 39 700 q 100 947 39 881 q 250 1014 161 1014 l 260 1014 q 419 950 354 1014 q 485 792 485 886 m 424 792 q 376 907 424 860 q 258 954 328 954 l 250 954 q 143 906 185 954 q 101 792 101 858 q 147 676 101 724 q 261 629 193 629 q 376 677 329 629 q 424 792 424 725 z "},"¢":{"ha":663,"x_min":28,"x_max":626,"o":"m 342 -85 l 444 -85 l 444 0 l 613 0 q 626 14 626 0 l 626 156 q 613 169 626 169 l 444 169 l 444 554 l 613 554 q 626 568 626 554 l 626 710 q 613 724 626 724 l 444 724 l 444 828 l 342 828 l 342 722 q 102 633 176 714 q 28 418 28 551 l 28 301 q 49 197 28 250 q 111 100 71 143 q 210 29 151 57 q 342 0 268 1 l 342 -85 m 190 326 l 190 386 q 228 503 190 454 q 342 554 265 551 l 342 169 q 226 215 263 172 q 190 326 190 258 z "},"£":{"ha":881,"x_min":39,"x_max":849,"o":"m 549 738 q 563 724 549 724 l 685 724 q 699 738 699 724 l 699 796 q 683 883 699 846 q 640 946 667 921 q 581 983 614 971 q 514 996 549 996 l 396 996 q 244 941 290 996 q 199 776 199 886 l 199 568 q 185 554 199 554 l 54 554 q 40 540 40 554 l 40 407 q 54 393 40 393 l 183 393 q 197 379 197 393 l 197 358 q 188 294 197 326 q 160 235 178 261 q 115 192 142 208 q 57 176 89 176 q 39 158 39 176 l 39 14 q 53 0 39 0 l 633 0 q 719 22 679 0 q 788 76 758 43 q 833 147 817 108 q 849 222 849 186 l 849 250 q 835 264 849 264 l 700 264 q 686 250 686 264 q 617 178 685 185 q 600 176 613 176 l 325 176 q 313 183 313 176 q 318 193 313 188 q 353 251 342 221 q 372 314 365 282 q 376 347 375 329 q 378 379 376 365 q 392 393 378 393 l 604 393 q 618 407 618 393 l 618 540 q 604 554 618 554 l 378 554 q 364 568 364 554 l 364 764 q 387 820 364 800 q 449 840 410 840 l 488 840 q 532 822 515 840 q 549 769 549 803 l 549 738 z "},"§":{"ha":718,"x_min":38,"x_max":682,"o":"m 682 372 q 654 283 682 335 q 617 230 638 253 q 567 192 596 207 q 561 185 563 189 q 564 178 560 181 q 621 103 604 147 q 638 8 638 58 q 556 -182 638 -111 q 353 -253 474 -253 q 126 -150 200 -253 q 89 -82 103 -117 q 75 -11 75 -47 q 89 4 75 4 l 236 4 q 250 -7 250 4 q 283 -82 250 -57 q 365 -107 317 -107 q 435 -79 408 -107 q 461 -8 461 -51 q 385 83 461 44 l 181 193 q 72 281 103 235 q 38 415 38 332 q 66 514 38 471 q 150 593 94 557 q 151 610 161 600 q 90 760 90 671 q 169 943 90 872 q 357 1010 242 1010 q 551 947 478 1010 q 625 767 625 885 q 611 754 625 754 l 469 754 q 457 767 457 754 q 430 838 457 814 q 354 861 403 861 q 290 842 318 861 q 258 785 258 818 q 308 710 258 736 l 522 597 q 639 510 603 556 q 682 372 682 457 m 518 340 q 442 429 518 388 l 261 524 q 236 525 246 532 q 206 493 218 514 q 193 451 193 472 q 253 364 193 397 l 450 256 q 471 256 464 246 q 504 295 490 276 q 518 340 518 314 z "},"":{"ha":538,"x_min":40,"x_max":497,"o":"m 497 500 q 431 336 497 403 q 269 269 364 269 q 106 335 171 269 q 40 500 40 401 q 106 663 40 597 q 269 728 171 728 q 431 661 364 728 q 497 500 497 594 z "},"¶":{"ha":858,"x_min":22,"x_max":800,"o":"m 800 -269 l 639 -269 l 639 875 l 497 875 l 497 -269 l 336 -269 l 336 494 q 117 550 197 494 q 22 746 22 614 q 122 943 22 878 q 349 996 208 996 l 800 996 l 800 -269 z "},"ß":{"ha":833,"x_min":44,"x_max":782,"o":"m 343 107 q 419 18 343 44 q 547 0 472 0 q 701 42 636 0 q 776 175 776 89 l 776 393 q 676 551 776 499 q 767 642 746 581 q 782 786 782 683 q 715 939 782 882 q 553 996 650 996 l 118 996 q 104 982 104 996 l 104 633 q 90 619 104 619 l 54 619 q 44 606 44 618 l 44 471 q 58 457 44 457 l 90 457 q 104 443 104 457 l 104 14 q 118 0 104 0 l 292 0 q 306 14 306 0 l 306 828 q 319 842 306 842 l 479 842 q 558 800 529 842 q 582 714 582 764 q 475 619 582 619 l 363 619 q 349 606 349 619 l 349 471 q 363 457 349 457 l 518 457 q 558 443 542 457 q 582 397 575 429 q 590 286 590 361 l 590 256 q 538 154 590 154 q 500 185 501 154 q 499 193 499 188 q 499 206 499 199 l 499 289 q 485 303 499 303 l 357 303 q 343 289 343 303 l 343 107 z "},"®":{"ha":1129,"x_min":53,"x_max":1076,"o":"m 774 0 l 354 0 q 233 19 288 0 q 138 74 178 38 q 75 162 97 110 q 53 282 53 214 l 53 710 q 133 924 53 851 q 354 996 213 996 l 774 996 q 997 924 917 996 q 1076 710 1076 851 l 1076 290 q 997 76 1076 151 q 774 0 917 0 m 940 706 q 903 827 940 793 q 778 861 865 861 l 353 861 q 226 827 265 861 q 188 706 188 793 l 188 294 q 228 172 188 207 q 353 136 268 136 l 778 136 q 901 174 863 136 q 940 294 940 211 l 940 706 m 338 810 l 338 188 q 346 179 338 179 l 457 179 q 465 188 465 179 l 465 410 q 475 419 465 419 l 582 419 q 633 364 621 414 l 688 204 q 696 188 690 197 q 707 179 701 179 l 829 179 q 835 183 835 179 q 830 192 835 186 q 824 204 825 197 l 775 358 q 759 400 768 381 q 731 446 750 419 q 729 450 729 447 q 733 457 729 453 q 769 484 756 469 q 794 517 783 499 q 814 629 814 553 l 814 650 q 802 724 814 693 q 771 775 790 756 q 724 809 747 799 q 675 819 700 819 l 346 819 q 338 810 338 819 m 647 704 q 682 672 668 700 q 688 653 686 664 q 689 631 689 642 q 682 585 689 606 q 663 554 675 565 q 636 542 647 542 l 475 542 q 465 551 465 542 l 465 694 q 475 704 465 704 l 647 704 z "},"©":{"ha":997,"x_min":51,"x_max":943,"o":"m 715 14 l 353 14 q 231 31 286 14 q 135 83 175 49 q 74 168 96 117 q 51 288 51 219 l 51 710 q 131 924 51 851 q 353 996 211 996 l 715 996 q 831 978 786 996 q 900 924 875 960 q 934 834 925 888 q 943 710 943 781 l 943 296 q 934 174 943 226 q 900 86 925 122 q 831 32 875 50 q 715 14 786 14 m 842 732 q 794 855 842 813 q 663 897 746 897 l 333 897 q 258 884 292 897 q 201 848 225 871 q 164 794 176 825 q 151 725 151 763 l 151 279 q 166 213 151 243 q 205 160 181 182 q 263 126 229 139 q 333 114 296 114 l 663 114 q 792 157 742 114 q 842 279 842 200 l 842 732 m 251 372 q 257 332 251 349 q 265 306 263 315 q 308 238 281 265 q 369 197 336 211 q 405 187 385 192 q 453 182 425 182 l 704 182 q 714 190 714 182 l 714 289 q 704 299 714 299 l 450 299 q 401 319 418 301 q 381 369 383 338 l 381 594 q 450 707 381 692 l 704 707 q 714 717 714 707 l 714 815 q 704 824 714 824 l 446 824 q 363 806 401 824 q 296 756 324 789 q 277 730 286 743 q 263 697 268 717 q 251 625 251 660 l 251 372 z "},"":{"ha":1261,"x_min":44,"x_max":1204,"o":"m 324 396 q 315 388 324 388 l 208 388 q 200 393 200 388 l 200 878 q 192 886 200 886 l 85 886 l 83 886 l 53 886 q 44 894 44 886 l 44 988 q 53 996 44 996 l 471 996 q 479 988 479 996 l 479 894 q 471 886 479 886 l 332 886 q 324 878 324 886 l 324 396 m 567 900 q 577 947 567 928 q 604 976 588 965 q 642 992 621 988 q 688 996 664 996 q 747 992 724 996 q 784 973 769 988 q 808 928 799 958 q 825 847 817 899 l 871 567 q 877 540 874 558 q 885 521 881 521 q 889 526 886 521 q 894 540 892 532 q 897 554 896 547 q 899 564 899 561 l 943 851 q 959 929 950 900 q 983 973 968 958 q 1022 992 999 988 q 1083 996 1046 996 q 1170 975 1136 996 q 1204 901 1204 954 l 1204 396 q 1196 388 1204 388 l 1089 388 q 1081 396 1081 388 l 1081 858 q 1080 865 1081 860 q 1075 871 1079 871 q 1065 863 1068 871 q 1060 841 1063 857 q 1056 818 1058 825 q 1045 773 1050 797 q 1033 710 1040 749 q 1013 613 1025 672 q 979 460 1000 553 q 971 433 976 446 q 954 410 965 419 q 925 394 943 400 q 881 388 907 388 q 815 408 832 388 q 792 449 797 428 l 706 853 q 703 863 706 856 q 697 872 701 871 l 693 872 q 690 867 690 872 l 690 396 q 682 388 690 388 l 575 388 q 567 396 567 388 l 567 900 z "},"´":{"ha":481,"x_min":14,"x_max":450,"o":"m 29 782 q 18 771 22 775 q 14 764 14 767 q 28 750 14 750 q 47 751 32 750 q 67 751 63 751 q 267 783 192 765 q 384 821 343 800 q 438 867 425 842 q 450 919 450 892 q 429 963 450 946 q 376 979 408 979 q 298 958 346 979 q 199 905 250 936 q 102 840 149 874 q 29 782 56 807 z "},"¨":{"ha":585,"x_min":57,"x_max":526,"o":"m 325 808 q 339 794 325 794 l 513 794 q 526 808 526 794 l 526 982 q 513 996 526 996 l 339 996 q 325 982 325 996 l 325 808 m 57 808 q 71 794 57 794 l 244 794 q 258 808 258 794 l 258 982 q 244 996 258 996 l 71 996 q 57 982 57 996 l 57 808 z "},"Æ":{"ha":1513,"x_min":21,"x_max":1456,"o":"m 767 146 q 778 94 767 118 q 806 53 790 71 q 851 15 825 31 q 904 0 876 0 l 1442 0 q 1456 14 1456 0 l 1456 167 q 1442 181 1456 181 l 982 181 q 968 194 968 181 l 968 396 q 982 410 968 410 l 1408 410 q 1422 424 1422 410 l 1422 583 q 1408 597 1422 597 l 982 597 q 968 611 968 597 l 968 800 q 982 815 968 815 l 1442 815 q 1456 829 1456 815 l 1456 982 q 1438 996 1456 996 l 796 996 q 671 982 719 996 q 589 914 622 968 l 25 13 l 24 7 q 33 0 21 0 l 233 0 q 247 3 244 0 q 253 13 250 6 l 401 251 q 425 267 413 267 l 753 267 q 767 253 767 267 l 767 146 m 767 474 q 766 469 765 471 q 765 467 767 468 q 751 457 763 457 l 544 457 q 536 467 533 457 q 540 474 538 468 l 736 790 q 760 815 753 815 q 767 810 765 815 l 767 783 l 767 474 z "},"Ø":{"ha":983,"x_min":50,"x_max":933,"o":"m 114 -58 q 111 -67 111 -64 q 124 -76 111 -76 l 283 -76 q 299 -72 294 -76 q 308 -58 304 -67 l 324 -25 q 397 -28 356 -28 q 492 -28 439 -28 q 621 -26 567 -28 q 708 -18 675 -25 q 797 20 756 -7 q 867 83 839 47 q 900 154 888 111 q 924 251 913 197 q 932 349 931 289 q 933 490 933 408 l 933 499 q 932 640 933 581 q 924 738 931 700 q 900 835 913 792 q 867 906 888 878 q 801 965 838 940 l 851 1069 q 854 1078 854 1075 q 842 1088 854 1088 l 683 1088 q 667 1083 672 1088 q 657 1069 661 1078 l 631 1015 q 567 1017 601 1017 q 492 1017 532 1017 q 363 1015 417 1017 q 275 1007 308 1014 q 186 969 228 996 q 117 906 144 942 q 83 835 96 878 q 60 738 71 792 q 51 640 53 700 q 50 499 50 581 l 50 490 q 51 349 50 408 q 60 251 53 289 q 83 154 71 197 q 117 83 96 111 q 160 38 136 57 l 114 -58 m 732 654 l 732 335 q 711 224 732 261 q 640 175 690 188 q 574 166 613 168 q 492 164 535 164 q 453 164 472 164 q 415 165 433 164 l 707 769 q 732 654 732 735 m 492 825 l 539 825 l 261 249 q 251 335 251 279 l 251 654 q 272 765 251 728 q 343 814 293 801 q 410 823 371 821 q 492 825 449 825 z "},"±":{"ha":808,"x_min":31,"x_max":778,"o":"m 500 651 q 486 665 486 651 l 486 929 q 472 943 486 943 l 336 943 q 322 929 322 943 l 322 663 q 308 651 322 651 l 44 651 q 31 638 31 651 l 31 508 q 44 494 31 494 l 308 494 q 322 481 322 494 l 322 217 q 336 203 322 203 l 472 203 q 486 217 486 203 l 486 481 q 500 494 486 494 l 764 494 q 778 508 778 494 l 778 638 q 764 651 778 651 l 500 651 m 31 14 q 44 0 31 0 l 764 0 q 778 14 778 0 l 778 147 q 764 161 778 161 l 44 161 q 31 147 31 161 l 31 14 z "},"¥":{"ha":944,"x_min":31,"x_max":913,"o":"m 113 435 q 126 421 113 421 l 292 421 l 301 400 q 338 361 317 374 q 374 344 360 349 l 374 315 l 126 315 q 113 301 113 315 l 113 168 q 126 154 113 154 l 374 154 l 374 35 q 394 0 374 0 l 563 0 q 582 35 582 0 l 582 154 l 817 154 q 831 168 831 154 l 831 301 q 817 315 831 315 l 582 315 l 582 344 q 615 361 597 349 q 653 400 633 374 l 661 421 l 817 421 q 831 435 831 421 l 831 568 q 817 582 831 582 l 733 582 l 911 976 q 913 983 913 979 q 900 996 913 996 l 713 996 q 689 976 697 996 l 513 582 l 440 582 l 257 979 q 233 996 250 996 l 42 996 q 31 988 31 996 q 35 975 31 983 l 217 582 l 126 582 q 113 568 113 582 l 113 435 z "},"µ":{"ha":750,"x_min":54,"x_max":710,"o":"m 526 14 q 540 0 526 0 l 696 0 q 710 14 710 0 l 710 713 q 696 726 710 726 l 540 726 q 526 713 526 726 l 526 296 q 483 187 526 229 q 374 144 440 144 q 274 178 311 144 q 238 281 238 213 l 238 713 q 224 726 238 726 l 68 726 q 54 713 54 726 l 54 -271 q 68 -285 54 -285 l 224 -285 q 238 -271 238 -285 l 238 15 q 288 -10 257 -1 q 349 -18 318 -18 q 449 1 407 -18 q 526 82 490 19 l 526 14 z "},"ª":{"ha":563,"x_min":51,"x_max":511,"o":"m 501 515 l 181 515 q 88 556 124 515 q 51 654 51 596 q 83 757 51 714 q 172 800 115 800 l 378 800 l 378 825 q 366 863 378 844 q 340 886 354 881 q 301 892 325 892 l 81 892 l 81 996 l 303 996 q 454 951 411 996 q 501 790 501 899 l 501 515 m 511 476 l 510 375 l 54 375 l 54 476 l 511 476 m 378 614 l 378 708 l 228 708 q 176 660 176 708 q 225 614 176 614 l 378 614 z "},"º":{"ha":594,"x_min":47,"x_max":546,"o":"m 546 740 q 480 558 546 622 q 296 493 414 493 q 47 742 47 493 q 121 913 47 849 q 299 972 190 972 q 478 914 411 972 q 546 740 546 851 m 538 465 l 538 365 l 50 365 l 50 465 l 538 465 m 417 740 q 384 835 417 797 q 294 874 351 874 q 207 833 239 874 q 175 736 175 793 q 204 632 175 674 q 299 586 239 586 q 417 740 417 586 z "},"æ":{"ha":1279,"x_min":53,"x_max":1226,"o":"m 699 281 l 1213 281 q 1226 294 1226 281 l 1226 439 q 1208 557 1226 504 q 1149 647 1189 610 q 1046 703 1108 683 q 897 724 983 724 q 760 707 828 724 q 639 649 693 690 q 579 703 615 682 q 493 724 543 724 l 101 724 q 88 710 88 724 l 88 568 q 101 554 88 554 l 467 554 q 503 535 489 554 q 517 496 517 515 q 495 455 517 472 q 438 438 474 438 l 206 438 q 135 414 164 438 q 88 356 106 390 q 61 282 69 322 q 53 208 53 242 q 58 156 53 190 q 78 86 64 121 q 119 26 93 51 q 188 0 146 0 l 1188 0 q 1201 14 1201 0 l 1201 156 q 1188 169 1201 169 l 826 169 q 733 192 772 169 q 686 251 693 215 l 686 274 q 699 281 689 281 m 699 443 q 686 449 688 443 l 686 469 q 714 512 692 493 q 765 544 736 531 q 827 565 794 558 q 885 572 860 572 q 1021 541 972 572 q 1069 457 1069 510 q 1056 443 1069 443 l 699 443 m 264 163 q 225 181 239 163 q 211 222 211 199 q 224 258 211 242 q 256 274 236 274 l 503 274 q 517 260 517 274 l 517 176 q 503 163 517 163 l 264 163 z "},"ø":{"ha":793,"x_min":40,"x_max":749,"o":"m 106 -37 q 103 -40 104 -40 q 103 -43 103 -40 q 114 -50 103 -50 l 242 -50 q 254 -47 250 -50 q 263 -37 258 -44 l 282 0 l 504 0 q 614 13 568 0 q 690 57 660 25 q 734 143 719 89 q 749 281 749 197 l 749 515 q 723 617 749 574 q 657 686 697 660 l 700 764 q 701 767 701 767 q 703 769 703 767 q 693 776 703 776 l 564 776 q 544 764 550 776 l 522 724 l 257 724 q 173 708 213 724 q 104 665 133 693 q 58 596 75 636 q 40 506 40 556 l 40 261 q 62 126 40 190 q 142 28 83 63 l 106 -37 m 207 261 l 207 483 q 217 517 207 503 q 241 539 226 531 q 274 551 256 547 q 310 554 292 554 l 429 554 l 235 197 q 215 223 222 208 q 207 261 207 238 m 578 485 l 578 253 q 541 193 578 217 q 454 169 504 169 l 375 169 l 565 517 q 578 485 578 501 z "},"¡":{"ha":318,"x_min":57,"x_max":258,"o":"m 258 14 l 258 711 q 244 725 258 725 l 71 725 q 57 711 57 725 l 57 14 q 71 0 57 0 l 244 0 q 258 14 258 0 m 258 982 q 244 996 258 996 l 71 996 q 57 982 57 996 l 57 842 q 71 828 57 828 l 244 828 q 258 842 258 828 l 258 982 z "},"¬":{"ha":785,"x_min":8,"x_max":726,"o":"m 8 450 q 22 436 8 436 l 551 436 q 565 422 565 436 l 565 168 q 579 154 565 154 l 713 154 q 726 168 726 154 l 726 583 q 713 597 726 597 l 22 597 q 8 583 8 597 l 8 450 z "},"":{"ha":758,"x_min":15,"x_max":746,"o":"m 746 997 l 714 846 q 632 867 664 867 q 550 806 574 867 q 528 693 540 781 l 524 663 l 690 663 l 690 526 l 504 526 l 424 38 q 350 -185 399 -108 q 154 -290 282 -290 q 40 -268 111 -290 l 15 -260 l 49 -106 l 68 -117 q 118 -129 90 -129 q 193 -85 171 -129 q 218 6 207 -61 l 308 526 l 139 526 l 139 663 l 328 663 l 363 810 q 419 940 379 888 q 603 1024 482 1024 q 746 997 660 1024 z "},"»":{"ha":618,"x_min":57,"x_max":586,"o":"m 586 306 l 354 104 l 354 267 l 493 389 l 354 511 l 354 674 l 586 472 l 586 306 m 292 306 l 57 104 l 57 267 l 196 389 l 57 511 l 57 674 l 292 472 l 292 306 z "},"":{"ha":1004,"x_min":57,"x_max":947,"o":"m 947 0 l 751 0 l 751 176 l 947 176 l 947 0 m 600 0 l 404 0 l 404 176 l 600 176 l 600 0 m 253 0 l 57 0 l 57 176 l 253 176 l 253 0 z "}," ":{"ha":392,"x_min":0,"x_max":0,"o":""},"À":{"ha":957,"x_min":29,"x_max":958,"o":"m 29 8 q 40 0 29 0 l 221 0 q 239 14 235 0 l 313 251 q 331 267 317 267 l 657 267 q 675 253 671 267 l 749 13 q 767 0 753 0 l 949 0 q 958 8 958 0 l 679 914 q 617 982 663 968 q 493 996 572 996 q 372 982 417 996 q 311 914 328 968 l 29 8 m 607 474 q 608 469 607 471 q 608 467 608 468 q 597 457 608 457 l 390 457 q 379 467 379 457 q 380 469 379 468 q 381 474 381 471 l 478 790 q 493 815 486 815 q 503 810 500 815 q 510 790 506 806 l 607 474 m 689 1065 q 700 1054 696 1058 q 704 1047 704 1050 q 690 1033 704 1033 q 671 1034 686 1033 q 651 1035 656 1035 q 451 1066 526 1049 q 334 1104 375 1083 q 281 1150 293 1125 q 268 1203 268 1175 q 289 1246 268 1229 q 342 1263 310 1263 q 420 1241 372 1263 q 519 1188 468 1219 q 615 1124 569 1157 q 689 1065 661 1090 z "},"Ã":{"ha":957,"x_min":29,"x_max":958,"o":"m 29 8 q 40 0 29 0 l 221 0 q 239 14 235 0 l 313 251 q 331 267 317 267 l 657 267 q 675 253 671 267 l 749 13 q 767 0 753 0 l 949 0 q 958 8 958 0 l 679 914 q 617 982 663 968 q 493 996 572 996 q 372 982 417 996 q 311 914 328 968 l 29 8 m 607 474 q 608 469 607 471 q 608 467 608 468 q 597 457 608 457 l 390 457 q 379 467 379 457 q 380 469 379 468 q 381 474 381 471 l 478 790 q 493 815 486 815 q 503 810 500 815 q 510 790 506 806 l 607 474 m 757 1238 q 768 1229 768 1238 l 768 1226 q 708 1084 746 1133 q 603 1035 669 1035 q 381 1099 547 1035 q 367 1101 369 1101 q 333 1085 347 1101 q 313 1046 319 1068 q 296 1032 308 1032 l 229 1032 q 214 1044 214 1032 q 215 1047 214 1046 q 215 1050 215 1047 q 228 1100 225 1093 q 254 1164 239 1140 q 394 1238 304 1238 q 494 1206 419 1238 q 599 1174 571 1174 q 667 1222 649 1174 q 686 1238 672 1238 l 757 1238 z "},"":{"ha":1449,"x_min":53,"x_max":1392,"o":"m 53 494 q 54 359 53 415 q 63 267 56 303 q 85 173 72 214 q 117 106 97 132 q 184 46 144 71 q 268 10 224 21 q 351 1 300 3 q 474 0 403 0 q 597 1 546 0 q 681 10 649 3 q 719 22 700 14 q 754 39 738 29 q 795 11 774 22 q 840 0 817 0 l 1378 0 q 1392 14 1392 0 l 1392 167 q 1378 181 1392 181 l 918 181 q 904 194 904 181 l 904 396 q 918 410 904 410 l 1344 410 q 1358 424 1358 410 l 1358 583 q 1344 597 1358 597 l 918 597 q 904 611 904 597 l 904 800 q 918 815 904 815 l 1378 815 q 1392 829 1392 815 l 1392 982 q 1374 996 1392 996 l 903 996 q 767 949 819 996 q 681 988 729 974 q 597 995 649 994 q 474 996 546 996 q 351 995 403 996 q 268 988 300 994 q 184 951 224 976 q 117 890 144 925 q 85 823 97 864 q 63 731 72 782 q 54 638 56 694 q 53 501 53 581 l 53 494 m 474 814 q 551 813 514 814 q 615 804 589 811 q 683 756 664 792 q 703 650 703 721 l 703 332 q 681 236 703 268 q 615 193 660 204 q 551 185 589 186 q 474 183 514 183 q 397 185 433 183 q 332 193 360 186 q 264 240 283 206 q 244 346 244 275 l 244 650 q 264 756 244 721 q 332 803 283 792 q 397 812 360 810 q 474 814 433 814 z "},"":{"ha":1357,"x_min":54,"x_max":1306,"o":"m 778 281 l 1292 281 q 1306 294 1306 281 l 1306 439 q 1287 557 1306 504 q 1228 647 1268 610 q 1125 703 1188 683 q 976 724 1063 724 q 839 706 907 724 q 715 647 771 689 q 640 703 683 683 q 551 724 596 724 l 271 724 q 187 708 226 724 q 118 665 147 693 q 72 596 89 636 q 54 506 54 556 l 54 261 q 64 166 54 213 q 99 83 74 119 q 165 23 124 46 q 271 0 207 0 l 518 0 q 631 13 585 0 q 707 61 678 26 q 1001 0 803 0 l 1236 0 q 1250 14 1250 0 l 1250 156 q 1236 169 1250 169 l 906 169 q 850 177 876 169 q 805 198 824 185 q 775 228 786 211 q 764 267 764 246 q 778 281 764 281 m 592 485 l 592 253 q 555 193 592 217 q 468 169 518 169 l 340 169 q 301 173 322 169 q 263 187 281 176 q 233 215 244 197 q 221 261 221 233 l 221 483 q 231 517 221 503 q 255 539 240 531 q 288 551 269 547 q 324 554 306 554 l 475 554 q 517 550 496 554 q 554 537 538 546 q 581 515 571 528 q 592 485 592 501 m 800 443 q 786 457 786 443 q 807 505 786 483 q 859 541 828 526 q 924 564 890 556 q 986 572 958 572 q 1122 541 1074 572 q 1171 457 1171 510 q 1157 443 1171 443 l 800 443 z "},"":{"ha":861,"x_min":57,"x_max":803,"o":"m 57 415 q 71 401 57 401 l 789 401 q 803 415 803 401 l 803 582 q 789 596 803 596 l 71 596 q 57 582 57 596 l 57 415 z "},"":{"ha":763,"x_min":57,"x_max":704,"o":"m 57 367 q 71 353 57 353 l 690 353 q 704 367 704 353 l 704 533 q 690 547 704 547 l 71 547 q 57 533 57 547 l 57 367 z "},"":{"ha":554,"x_min":50,"x_max":499,"o":"m 251 700 l 251 874 q 238 888 251 888 l 200 888 q 194 888 197 888 q 190 889 192 888 q 192 899 188 892 l 238 996 q 229 1004 242 1004 l 156 1004 q 144 997 147 1004 l 51 882 q 50 874 50 879 l 50 700 q 64 686 50 686 l 238 686 q 251 700 251 686 m 499 700 l 499 874 q 485 888 499 888 l 447 888 q 442 888 444 888 q 438 889 439 888 q 439 899 435 892 l 485 996 q 476 1004 489 1004 l 403 1004 q 392 997 394 1004 l 299 882 q 297 874 297 879 l 297 700 q 311 686 297 686 l 485 686 q 499 700 499 686 z "},"":{"ha":553,"x_min":54,"x_max":503,"o":"m 301 982 l 301 808 q 315 794 301 794 l 353 794 q 358 794 356 794 q 363 793 361 794 q 361 783 365 790 l 315 686 q 324 678 311 678 l 397 678 q 408 685 406 678 l 501 800 q 503 808 503 803 l 503 982 q 489 996 503 996 l 315 996 q 301 982 301 996 m 54 982 l 54 808 q 68 794 54 794 l 106 794 q 111 794 108 794 q 115 793 114 794 q 114 783 118 790 l 68 686 q 76 678 64 678 l 150 678 q 161 685 158 678 l 254 800 q 256 808 256 803 l 256 982 q 242 996 256 996 l 68 996 q 54 982 54 996 z "},"":{"ha":296,"x_min":40,"x_max":242,"o":"m 242 700 l 242 874 q 228 888 242 888 l 190 888 q 185 888 188 888 q 181 889 182 888 q 182 899 178 892 l 228 996 q 219 1004 232 1004 l 146 1004 q 135 997 138 1004 l 42 882 q 40 874 40 879 l 40 700 q 54 686 40 686 l 228 686 q 242 700 242 686 z "},"":{"ha":294,"x_min":51,"x_max":253,"o":"m 51 982 l 51 808 q 65 794 51 794 l 103 794 q 108 794 106 794 q 113 793 111 794 q 111 783 115 790 l 65 686 q 74 678 61 678 l 147 678 q 158 685 156 678 l 251 800 q 253 808 253 803 l 253 982 q 239 996 253 996 l 65 996 q 51 982 51 996 z "},"÷":{"ha":788,"x_min":38,"x_max":754,"o":"m 300 689 q 314 675 300 675 l 474 675 q 488 689 488 675 l 488 849 q 474 863 488 863 l 314 863 q 300 849 300 863 l 300 689 m 300 129 q 314 115 300 115 l 474 115 q 488 129 488 115 l 488 289 q 474 303 488 303 l 314 303 q 300 289 300 303 l 300 129 m 38 422 q 51 408 38 408 l 740 408 q 754 422 754 408 l 754 556 q 740 569 754 569 l 51 569 q 38 556 38 569 l 38 422 z "},"ÿ":{"ha":817,"x_min":-3,"x_max":771,"o":"m 376 -269 q 399 -258 394 -269 l 769 708 q 771 714 771 711 q 757 724 771 724 l 590 724 q 575 715 578 724 l 399 250 q 394 237 397 246 q 386 219 390 228 q 376 203 382 210 q 365 196 371 196 q 354 203 360 196 q 344 220 349 211 q 336 238 339 229 q 332 251 333 247 l 185 714 q 168 724 181 724 l 7 724 q -3 714 -3 724 q -1 708 -3 710 l 224 46 q 244 16 231 25 q 269 4 257 7 q 292 1 282 1 q 301 -1 301 1 l 301 -3 l 204 -260 l 204 -264 q 211 -269 204 -269 l 376 -269 m 455 796 q 468 783 455 783 l 623 783 q 636 796 636 783 l 636 951 q 623 964 636 964 l 468 964 q 455 951 455 964 l 455 796 m 215 796 q 227 783 215 783 l 383 783 q 395 796 395 783 l 395 951 q 383 964 395 964 l 227 964 q 215 951 215 964 l 215 796 z "},"":{"ha":831,"x_min":17,"x_max":907,"o":"m 556 0 q 575 35 575 0 l 575 344 q 608 361 590 349 q 646 400 626 374 l 904 976 q 905 990 907 983 q 893 996 903 996 l 706 996 q 682 976 690 996 l 492 551 q 483 541 486 544 q 469 538 479 538 q 447 551 454 538 l 250 979 q 226 996 243 996 l 35 996 q 28 975 17 996 l 294 400 q 331 361 310 374 q 367 344 353 349 l 367 35 q 388 0 367 0 l 556 0 m 451 1046 q 465 1032 451 1032 l 639 1032 q 653 1046 653 1032 l 653 1219 q 639 1233 653 1233 l 465 1233 q 451 1219 451 1233 l 451 1046 m 183 1046 q 197 1032 183 1032 l 371 1032 q 385 1046 385 1032 l 385 1219 q 371 1233 385 1233 l 197 1233 q 183 1219 183 1233 l 183 1046 z "},"¤":{"ha":896,"x_min":49,"x_max":847,"o":"m 847 203 l 753 108 l 613 246 q 453 201 539 201 q 281 246 367 201 l 140 108 l 49 203 l 186 342 q 140 511 140 424 q 185 669 140 594 l 49 811 l 140 906 l 281 765 q 449 813 357 813 q 537 804 506 813 q 614 765 568 796 l 753 906 l 847 811 l 708 672 q 746 594 738 625 q 754 508 754 564 q 746 422 754 453 q 708 342 738 392 l 847 203 m 593 507 q 555 620 593 575 q 450 665 517 665 q 340 621 378 665 q 301 506 301 576 q 342 392 301 439 q 449 346 383 346 q 553 394 513 346 q 593 507 593 442 z "},"":{"ha":303,"x_min":13,"x_max":244,"o":"m 231 669 q 238 672 233 672 q 244 664 244 672 l 244 526 q 242 513 244 518 q 235 504 239 508 l 121 406 q 111 397 115 401 q 107 390 107 393 q 111 383 107 388 q 121 375 115 379 l 233 275 q 244 250 244 267 l 244 113 q 239 106 244 106 q 231 110 235 106 l 26 285 q 16 298 19 292 q 13 315 13 304 l 13 469 q 15 483 13 478 q 25 493 18 488 l 231 669 z "},"":{"ha":301,"x_min":57,"x_max":289,"o":"m 71 107 q 64 104 68 104 q 57 113 57 104 l 57 250 q 60 263 57 258 q 67 272 63 268 l 181 371 q 190 379 186 375 q 194 386 194 383 q 190 393 194 389 q 181 401 186 397 l 68 501 q 57 526 57 510 l 57 664 q 63 671 57 671 q 71 667 67 671 l 275 492 q 285 478 282 485 q 289 461 289 472 l 289 307 q 276 283 289 293 l 71 107 z "},"":{"ha":719,"x_min":17,"x_max":703,"o":"m 461 982 q 447 996 461 996 l 274 996 q 260 982 260 996 l 260 738 q 246 724 260 724 l 31 724 q 17 710 17 724 l 17 568 q 31 554 17 554 l 246 554 q 260 540 260 554 l 260 238 q 246 224 260 224 l 31 224 q 17 210 17 224 l 17 68 q 31 54 17 54 l 246 54 q 260 40 260 54 l 260 -222 q 274 -236 260 -236 l 447 -236 q 461 -222 461 -236 l 461 40 q 475 54 461 54 l 689 54 q 703 68 703 54 l 703 210 q 689 224 703 224 l 475 224 q 461 238 461 224 l 461 540 q 475 554 461 554 l 689 554 q 703 568 703 554 l 703 710 q 689 724 703 724 l 475 724 q 461 738 461 724 l 461 982 z "},"·":{"ha":313,"x_min":57,"x_max":253,"o":"m 253 431 l 57 431 l 57 607 l 253 607 l 253 431 z "},"":{"ha":294,"x_min":51,"x_max":253,"o":"m 51 188 l 51 14 q 65 0 51 0 l 103 0 q 108 0 106 0 q 113 -1 111 0 q 111 -11 115 -4 l 65 -108 q 74 -117 61 -117 l 147 -117 q 158 -110 156 -117 l 251 6 q 253 14 253 8 l 253 188 q 239 201 253 201 l 65 201 q 51 188 51 201 z "},"":{"ha":553,"x_min":54,"x_max":503,"o":"m 301 188 l 301 14 q 315 0 301 0 l 353 0 q 358 0 356 0 q 363 -1 361 0 q 361 -11 365 -4 l 315 -108 q 324 -117 311 -117 l 397 -117 q 408 -110 406 -117 l 501 6 q 503 14 503 8 l 503 188 q 489 201 503 201 l 315 201 q 301 188 301 201 m 54 188 l 54 14 q 68 0 54 0 l 106 0 q 111 0 108 0 q 115 -1 114 0 q 114 -11 118 -4 l 68 -108 q 76 -117 64 -117 l 150 -117 q 161 -110 158 -117 l 254 6 q 256 14 256 8 l 256 188 q 242 201 256 201 l 68 201 q 54 188 54 201 z "},"Â":{"ha":957,"x_min":29,"x_max":958,"o":"m 29 8 q 40 0 29 0 l 221 0 q 239 14 235 0 l 313 251 q 331 267 317 267 l 657 267 q 675 253 671 267 l 749 13 q 767 0 753 0 l 949 0 q 958 8 958 0 l 679 914 q 617 982 663 968 q 493 996 572 996 q 372 982 417 996 q 311 914 328 968 l 29 8 m 607 474 q 608 469 607 471 q 608 467 608 468 q 597 457 608 457 l 390 457 q 379 467 379 457 q 380 469 379 468 q 381 474 381 471 l 478 790 q 493 815 486 815 q 503 810 500 815 q 510 790 506 806 l 607 474 m 738 1032 q 740 1025 740 1029 q 732 1018 740 1018 l 594 1018 q 581 1021 586 1018 q 572 1028 576 1024 l 501 1113 q 493 1122 497 1118 q 486 1126 489 1126 q 479 1122 483 1126 q 471 1113 475 1118 l 401 1029 q 376 1018 393 1018 l 239 1018 q 232 1024 232 1018 q 236 1032 232 1028 l 381 1207 q 394 1217 388 1214 q 411 1221 400 1221 l 565 1221 q 578 1218 574 1221 q 589 1208 583 1215 l 738 1032 z "},"Ê":{"ha":776,"x_min":56,"x_max":744,"o":"m 56 146 q 67 94 56 119 q 99 47 79 68 q 143 13 118 26 q 193 0 168 0 l 731 0 q 744 14 744 0 l 744 167 q 731 181 744 181 l 271 181 q 257 194 257 181 l 257 396 q 271 410 257 410 l 697 410 q 711 424 711 410 l 711 583 q 697 597 711 597 l 271 597 q 257 611 257 597 l 257 800 q 271 815 257 815 l 731 815 q 744 829 744 815 l 744 982 q 726 996 744 996 l 256 996 q 107 937 158 996 q 56 783 56 878 l 56 146 m 688 1044 q 690 1038 690 1042 q 682 1031 690 1031 l 544 1031 q 531 1033 536 1031 q 522 1040 526 1036 l 451 1125 q 443 1135 447 1131 q 436 1139 439 1139 q 429 1135 433 1139 q 421 1125 425 1131 l 351 1042 q 326 1031 343 1031 l 189 1031 q 182 1036 182 1031 q 186 1044 182 1040 l 331 1219 q 344 1230 338 1226 q 361 1233 350 1233 l 515 1233 q 528 1231 524 1233 q 539 1221 533 1228 l 688 1044 z "},"Á":{"ha":957,"x_min":29,"x_max":958,"o":"m 29 8 q 40 0 29 0 l 221 0 q 239 14 235 0 l 313 251 q 331 267 317 267 l 657 267 q 675 253 671 267 l 749 13 q 767 0 753 0 l 949 0 q 958 8 958 0 l 679 914 q 617 982 663 968 q 493 996 572 996 q 372 982 417 996 q 311 914 328 968 l 29 8 m 607 474 q 608 469 607 471 q 608 467 608 468 q 597 457 608 457 l 390 457 q 379 467 379 457 q 380 469 379 468 q 381 474 381 471 l 478 790 q 493 815 486 815 q 503 810 500 815 q 510 790 506 806 l 607 474 m 313 1049 q 301 1038 306 1042 q 297 1031 297 1033 q 311 1017 297 1017 q 331 1017 315 1017 q 350 1018 346 1018 q 551 1049 475 1032 q 667 1088 626 1067 q 721 1133 708 1108 q 733 1186 733 1158 q 713 1229 733 1213 q 660 1246 692 1246 q 581 1224 629 1246 q 483 1172 533 1203 q 385 1107 432 1140 q 313 1049 339 1074 z "},"Ë":{"ha":776,"x_min":56,"x_max":744,"o":"m 56 146 q 67 94 56 119 q 99 47 79 68 q 143 13 118 26 q 193 0 168 0 l 731 0 q 744 14 744 0 l 744 167 q 731 181 744 181 l 271 181 q 257 194 257 181 l 257 396 q 271 410 257 410 l 697 410 q 711 424 711 410 l 711 583 q 697 597 711 597 l 271 597 q 257 611 257 597 l 257 800 q 271 815 257 815 l 731 815 q 744 829 744 815 l 744 982 q 726 996 744 996 l 256 996 q 107 937 158 996 q 56 783 56 878 l 56 146 m 504 1042 q 518 1028 504 1028 l 692 1028 q 706 1042 706 1028 l 706 1215 q 692 1229 706 1229 l 518 1229 q 504 1215 504 1229 l 504 1042 m 236 1042 q 250 1028 236 1028 l 424 1028 q 438 1042 438 1028 l 438 1215 q 424 1229 438 1229 l 250 1229 q 236 1215 236 1229 l 236 1042 z "},"È":{"ha":776,"x_min":56,"x_max":744,"o":"m 56 146 q 67 94 56 119 q 99 47 79 68 q 143 13 118 26 q 193 0 168 0 l 731 0 q 744 14 744 0 l 744 167 q 731 181 744 181 l 271 181 q 257 194 257 181 l 257 396 q 271 410 257 410 l 697 410 q 711 424 711 410 l 711 583 q 697 597 711 597 l 271 597 q 257 611 257 597 l 257 800 q 271 815 257 815 l 731 815 q 744 829 744 815 l 744 982 q 726 996 744 996 l 256 996 q 107 937 158 996 q 56 783 56 878 l 56 146 m 663 1061 q 674 1050 669 1054 q 678 1043 678 1046 q 664 1029 678 1029 q 644 1030 660 1029 q 625 1031 629 1031 q 424 1062 500 1044 q 308 1100 349 1079 q 254 1146 267 1121 q 242 1199 242 1171 q 263 1242 242 1225 q 315 1258 283 1258 q 394 1237 346 1258 q 492 1184 442 1215 q 589 1119 543 1153 q 663 1061 635 1086 z "},"Í":{"ha":340,"x_min":-54,"x_max":382,"o":"m 57 982 l 57 14 q 71 0 57 0 l 244 0 q 258 14 258 0 l 258 982 q 244 996 258 996 l 71 996 q 57 982 57 996 m -39 1065 q -50 1054 -46 1058 q -54 1047 -54 1050 q -40 1033 -54 1033 q -21 1034 -36 1033 q -1 1035 -6 1035 q 199 1066 124 1049 q 316 1104 275 1083 q 369 1150 357 1125 q 382 1203 382 1175 q 361 1246 382 1229 q 308 1263 340 1263 q 230 1241 278 1263 q 131 1188 182 1219 q 34 1124 81 1157 q -39 1065 -12 1090 z "},"Î":{"ha":338,"x_min":-79,"x_max":429,"o":"m 57 982 l 57 14 q 71 0 57 0 l 244 0 q 258 14 258 0 l 258 982 q 244 996 258 996 l 71 996 q 57 982 57 996 m 426 1053 q 429 1046 429 1050 q 421 1039 429 1039 l 283 1039 q 270 1042 275 1039 q 261 1049 265 1044 l 190 1133 q 182 1143 186 1139 q 175 1147 178 1147 q 168 1143 172 1147 q 160 1133 164 1139 l 90 1050 q 65 1039 82 1039 l -72 1039 q -79 1044 -79 1039 q -75 1053 -79 1049 l 69 1228 q 83 1238 76 1235 q 100 1242 89 1242 l 254 1242 q 267 1239 263 1242 q 278 1229 272 1236 l 426 1053 z "},"Ï":{"ha":340,"x_min":-56,"x_max":414,"o":"m 57 982 l 57 14 q 71 0 57 0 l 244 0 q 258 14 258 0 l 258 982 q 244 996 258 996 l 71 996 q 57 982 57 996 m 213 1049 q 226 1035 213 1035 l 400 1035 q 414 1049 414 1035 l 414 1222 q 400 1236 414 1236 l 226 1236 q 213 1222 213 1236 l 213 1049 m -56 1049 q -42 1035 -56 1035 l 132 1035 q 146 1049 146 1035 l 146 1222 q 132 1236 146 1236 l -42 1236 q -56 1222 -56 1236 l -56 1049 z "},"Ì":{"ha":340,"x_min":-36,"x_max":400,"o":"m 57 982 l 57 14 q 71 0 57 0 l 244 0 q 258 14 258 0 l 258 982 q 244 996 258 996 l 71 996 q 57 982 57 996 m 385 1081 q 396 1069 392 1074 q 400 1063 400 1065 q 386 1049 400 1049 q 367 1049 382 1049 q 347 1050 351 1050 q 147 1081 222 1064 q 30 1119 71 1099 q -24 1165 -11 1140 q -36 1218 -36 1190 q -15 1261 -36 1244 q 38 1278 6 1278 q 116 1256 68 1278 q 215 1203 164 1235 q 311 1139 265 1172 q 385 1081 357 1106 z "},"Ú":{"ha":890,"x_min":54,"x_max":807,"o":"m 606 982 l 606 306 q 598 266 606 288 q 577 226 590 244 q 544 194 564 207 q 501 181 525 181 l 356 181 q 312 194 331 181 q 281 226 293 207 q 262 266 268 244 q 256 304 256 288 l 256 982 q 242 996 256 996 l 68 996 q 54 982 54 996 l 54 268 q 65 195 54 229 q 93 131 75 161 q 138 76 111 103 q 188 38 158 56 q 255 10 215 19 q 340 0 294 0 l 503 0 q 569 6 539 0 q 625 21 600 13 q 678 45 650 31 q 726 81 706 60 q 762 126 746 101 q 786 172 778 150 q 801 234 796 196 q 807 322 807 272 l 807 982 q 793 996 807 996 l 619 996 q 606 982 606 996 m 233 1061 q 222 1050 226 1054 q 218 1043 218 1046 q 232 1029 218 1029 q 251 1030 236 1029 q 271 1031 267 1031 q 472 1062 396 1044 q 588 1100 547 1079 q 642 1146 629 1121 q 654 1199 654 1171 q 633 1242 654 1225 q 581 1258 613 1258 q 502 1237 550 1258 q 403 1184 454 1215 q 306 1119 353 1153 q 233 1061 260 1086 z "},"Û":{"ha":890,"x_min":54,"x_max":807,"o":"m 606 982 l 606 306 q 598 266 606 288 q 577 226 590 244 q 544 194 564 207 q 501 181 525 181 l 356 181 q 312 194 331 181 q 281 226 293 207 q 262 266 268 244 q 256 304 256 288 l 256 982 q 242 996 256 996 l 68 996 q 54 982 54 996 l 54 268 q 65 195 54 229 q 93 131 75 161 q 138 76 111 103 q 188 38 158 56 q 255 10 215 19 q 340 0 294 0 l 503 0 q 569 6 539 0 q 625 21 600 13 q 678 45 650 31 q 726 81 706 60 q 762 126 746 101 q 786 172 778 150 q 801 234 796 196 q 807 322 807 272 l 807 982 q 793 996 807 996 l 619 996 q 606 982 606 996 m 700 1049 q 703 1042 703 1046 q 694 1035 703 1035 l 557 1035 q 544 1038 549 1035 q 535 1044 539 1040 l 464 1129 q 456 1139 460 1135 q 449 1143 451 1143 q 442 1139 446 1143 q 433 1129 438 1135 l 364 1046 q 339 1035 356 1035 l 201 1035 q 194 1040 194 1035 q 199 1049 194 1044 l 343 1224 q 356 1234 350 1231 q 374 1238 363 1238 l 528 1238 q 541 1235 536 1238 q 551 1225 546 1232 l 700 1049 z "},"Ù":{"ha":890,"x_min":54,"x_max":807,"o":"m 606 982 l 606 306 q 598 266 606 288 q 577 226 590 244 q 544 194 564 207 q 501 181 525 181 l 356 181 q 312 194 331 181 q 281 226 293 207 q 262 266 268 244 q 256 304 256 288 l 256 982 q 242 996 256 996 l 68 996 q 54 982 54 996 l 54 268 q 65 195 54 229 q 93 131 75 161 q 138 76 111 103 q 188 38 158 56 q 255 10 215 19 q 340 0 294 0 l 503 0 q 569 6 539 0 q 625 21 600 13 q 678 45 650 31 q 726 81 706 60 q 762 126 746 101 q 786 172 778 150 q 801 234 796 196 q 807 322 807 272 l 807 982 q 793 996 807 996 l 619 996 q 606 982 606 996 m 658 1081 q 669 1069 665 1074 q 674 1063 674 1065 q 660 1049 674 1049 q 640 1049 656 1049 q 621 1050 625 1050 q 420 1081 496 1064 q 303 1119 344 1099 q 250 1165 263 1140 q 238 1218 238 1190 q 258 1261 238 1244 q 311 1278 279 1278 q 390 1256 342 1278 q 488 1203 438 1235 q 585 1139 539 1172 q 658 1081 631 1106 z "},"":{"ha":575,"x_min":33,"x_max":542,"o":"m 539 781 q 542 774 542 778 q 533 767 542 767 l 396 767 q 383 769 388 767 q 374 776 378 772 l 303 861 q 294 871 299 867 q 288 875 290 875 q 281 871 285 875 q 272 861 276 867 l 203 778 q 178 767 194 767 l 40 767 q 33 772 33 767 q 38 781 33 776 l 182 956 q 195 966 189 963 q 213 969 201 969 l 367 969 q 380 967 375 969 q 390 957 385 964 l 539 781 z "},"":{"ha":642,"x_min":44,"x_max":599,"o":"m 588 996 q 599 988 599 996 l 599 985 q 538 842 576 892 q 433 793 500 793 q 211 857 378 793 q 197 860 200 860 q 164 843 178 860 q 143 804 150 826 q 126 790 139 790 l 60 790 q 44 803 44 790 q 45 805 44 804 q 46 808 46 806 q 58 858 56 851 q 85 922 69 899 q 225 996 135 996 q 325 964 250 996 q 429 932 401 932 q 497 981 479 932 q 517 996 503 996 l 588 996 z "},"¯":{"ha":642,"x_min":57,"x_max":583,"o":"m 583 786 l 57 786 l 57 892 l 583 892 l 583 786 z "},"¸":{"ha":410,"x_min":25,"x_max":376,"o":"m 376 -179 q 315 -285 376 -247 q 192 -317 263 -317 q 32 -286 124 -317 q 25 -276 25 -283 q 26 -269 25 -272 l 49 -224 q 58 -217 51 -217 q 63 -218 61 -217 q 125 -235 99 -232 q 167 -237 151 -237 q 215 -223 193 -237 q 238 -183 238 -208 q 179 -133 238 -133 q 157 -135 168 -133 q 132 -140 146 -137 q 128 -141 129 -140 q 125 -142 128 -142 q 113 -136 118 -142 l 97 -124 q 94 -115 94 -122 q 97 -104 94 -108 l 164 -8 q 182 0 169 0 l 246 0 q 251 -4 251 0 q 249 -11 251 -6 l 214 -58 q 210 -68 210 -65 q 217 -72 210 -72 q 226 -71 222 -72 q 236 -69 232 -69 q 246 -69 242 -69 q 336 -96 301 -69 q 376 -179 376 -128 z "},"≠":{"ha":775,"x_min":8,"x_max":767,"o":"m 767 196 l 331 196 l 200 -35 l 128 4 l 233 196 l 8 196 l 8 278 l 279 278 l 389 475 l 8 475 l 8 556 l 435 556 l 565 793 l 638 753 l 529 556 l 767 556 l 767 475 l 485 475 l 374 278 l 767 278 l 767 196 z "},"∞":{"ha":1056,"x_min":49,"x_max":1006,"o":"m 1006 383 q 949 241 1006 304 q 813 178 892 178 q 650 228 732 178 q 585 276 614 250 q 526 333 571 289 q 432 246 496 301 q 242 179 340 179 q 105 242 161 179 q 49 385 49 304 q 109 526 49 469 q 254 583 169 583 q 479 472 347 583 l 528 431 l 542 442 q 649 532 576 474 q 803 583 724 583 q 946 525 886 583 q 1006 383 1006 467 m 931 375 q 893 468 931 428 q 803 508 856 508 q 626 424 731 508 l 589 393 l 576 382 l 590 367 q 708 271 644 307 q 800 249 747 249 q 892 285 854 249 q 931 375 931 321 m 479 382 l 467 393 q 344 482 401 451 q 254 507 297 507 q 161 469 200 507 q 122 378 122 432 q 162 286 122 324 q 256 249 201 249 q 451 354 346 249 l 479 382 z "},"≤":{"ha":757,"x_min":7,"x_max":726,"o":"m 726 169 l 7 501 l 7 590 l 726 924 l 726 833 l 104 546 l 726 258 l 726 169 m 726 0 l 7 0 l 7 81 l 726 81 l 726 0 z "},"≥":{"ha":756,"x_min":31,"x_max":749,"o":"m 749 501 l 31 168 l 31 258 l 654 546 l 31 832 l 31 924 l 749 590 l 749 501 m 749 0 l 31 0 l 31 81 l 749 81 l 749 0 z "},"∂":{"ha":697,"x_min":29,"x_max":658,"o":"m 658 579 q 590 193 658 356 q 306 -28 499 -28 q 108 53 188 -28 q 29 251 29 133 q 106 476 29 381 q 314 581 188 581 q 518 494 411 581 l 532 483 q 547 638 547 583 q 521 825 547 735 q 421 979 486 940 q 300 1011 367 1011 q 232 1000 264 1011 q 168 974 225 997 l 142 963 l 86 1036 l 103 1042 l 135 1053 l 151 1057 l 182 1064 q 268 1076 238 1076 q 565 918 460 1076 q 658 579 658 781 m 519 432 q 368 522 446 522 q 204 414 264 522 q 156 211 156 325 q 181 82 156 133 q 283 14 214 14 q 475 214 411 14 q 519 432 510 324 z "},"∑":{"ha":1064,"x_min":39,"x_max":1022,"o":"m 1022 168 l 1018 149 l 994 49 l 969 -74 l 960 -154 l 856 -139 l 39 -143 l 543 431 l 42 1085 l 157 1076 l 910 1076 l 919 844 l 888 844 l 883 863 q 818 981 864 944 q 690 1010 778 1010 l 292 1010 l 682 494 l 260 6 l 821 6 q 929 57 888 6 q 986 168 958 92 l 1022 168 z "},"∏":{"ha":1207,"x_min":42,"x_max":1165,"o":"m 1165 -144 l 722 -144 l 722 -110 q 861 -6 861 -110 l 861 1004 l 346 1004 l 346 -12 q 485 -110 346 -110 l 485 -144 l 42 -144 l 42 -110 q 181 -12 181 -110 l 181 925 q 144 1017 181 983 q 50 1050 108 1050 l 44 1050 l 44 1085 l 1161 1085 l 1161 1050 l 1156 1050 q 1025 910 1025 1050 l 1025 -6 q 1165 -110 1025 -110 l 1165 -144 z "},"π":{"ha":840,"x_min":40,"x_max":792,"o":"m 792 219 q 753 61 792 129 q 621 -21 704 -21 q 518 46 556 -21 q 481 232 476 122 l 485 339 l 510 579 l 349 579 l 347 557 q 310 224 339 421 q 271 33 289 82 q 186 -26 249 -26 q 129 -3 151 -26 q 107 56 107 19 q 118 85 107 74 l 188 178 q 217 244 211 201 l 258 579 l 226 579 q 131 561 161 579 q 67 486 106 544 l 40 486 q 72 574 61 549 q 124 651 92 617 q 235 703 169 703 l 781 703 l 781 579 l 600 579 l 599 561 q 582 274 582 344 l 582 263 q 672 111 582 111 q 760 219 749 111 l 792 219 z "},"∫":{"ha":439,"x_min":10,"x_max":428,"o":"m 428 1242 q 347 1176 428 1176 q 328 1182 339 1176 l 297 1206 q 283 1213 292 1207 q 254 1165 251 1213 l 256 1135 l 276 875 q 283 551 283 789 q 276 242 283 332 q 203 -101 258 0 q 92 -151 175 -151 q 33 -124 57 -151 q 10 -61 10 -96 q 42 -14 10 -33 q 76 -1 63 -1 q 143 -46 93 -1 q 190 82 194 -42 l 179 444 l 181 840 q 196 1117 181 1025 q 333 1321 229 1321 q 400 1300 372 1321 q 428 1242 428 1279 z "},"√":{"ha":764,"x_min":0,"x_max":732,"o":"m 732 1315 l 517 -57 l 164 669 l 25 601 l 0 650 l 214 754 l 497 175 l 679 1324 l 732 1315 z "},"≈":{"ha":831,"x_min":44,"x_max":786,"o":"m 786 535 q 579 418 714 418 l 554 422 l 306 492 q 253 499 281 499 q 108 411 171 499 l 46 453 q 258 567 139 567 l 304 563 l 546 496 l 581 490 q 733 569 667 490 l 786 535 m 786 317 q 582 200 713 200 q 553 204 568 200 l 306 274 q 250 281 281 281 q 108 194 172 281 l 44 233 q 258 349 133 349 q 307 342 281 349 l 546 278 l 579 272 q 732 353 665 272 l 786 317 z "},"◊":{"ha":692,"x_min":22,"x_max":669,"o":"m 669 544 l 390 0 l 301 0 l 22 544 l 300 1076 l 390 1076 l 669 544 m 581 544 l 346 996 l 110 544 l 346 81 l 581 544 z "},"⁄":{"ha":674,"x_min":3,"x_max":671,"o":"m 671 994 l 85 -15 l 3 -17 l 590 994 l 671 994 z "},"˘":{"ha":581,"x_min":40,"x_max":542,"o":"m 542 969 q 275 767 519 767 q 82 847 144 767 q 40 969 40 903 l 136 969 q 285 872 160 872 q 383 886 351 872 q 443 969 433 908 l 542 969 z "},"˙":{"ha":304,"x_min":57,"x_max":244,"o":"m 244 781 l 57 781 l 57 940 l 244 940 l 244 781 z "},"˚":{"ha":401,"x_min":40,"x_max":361,"o":"m 361 861 q 313 758 361 799 q 200 717 264 717 q 89 758 138 717 q 40 861 40 799 q 89 965 40 922 q 200 1007 138 1007 q 313 965 264 1007 q 361 861 361 924 m 278 861 q 254 913 278 892 q 200 933 231 933 q 145 913 168 933 q 122 861 122 893 q 145 808 122 829 q 200 788 168 788 q 256 808 233 788 q 278 861 278 829 z "},"˝":{"ha":781,"x_min":40,"x_max":750,"o":"m 750 969 l 532 767 l 381 767 l 521 969 l 750 969 m 410 969 l 190 767 l 40 767 l 179 969 l 410 969 z "},"˛":{"ha":414,"x_min":38,"x_max":385,"o":"m 385 -283 q 222 -317 297 -317 q 101 -286 154 -317 q 38 -187 38 -251 q 199 0 38 -56 l 325 0 l 325 -4 q 231 -72 274 -29 q 178 -172 178 -126 q 198 -220 178 -201 q 247 -239 218 -239 q 358 -215 285 -239 l 385 -283 z "},"ˇ":{"ha":582,"x_min":29,"x_max":553,"o":"m 553 969 l 383 767 l 197 767 l 29 969 l 196 969 l 290 856 l 385 969 l 553 969 z "},"Ò":{"ha":988,"x_min":50,"x_max":933,"o":"m 50 490 q 51 349 50 408 q 60 251 53 289 q 83 154 71 197 q 117 83 96 111 q 186 20 144 47 q 275 -18 228 -7 q 363 -26 308 -25 q 492 -28 417 -28 q 621 -26 567 -28 q 708 -18 675 -25 q 797 20 756 -7 q 867 83 839 47 q 900 154 888 111 q 924 251 913 197 q 932 349 931 289 q 933 490 933 408 l 933 499 q 932 640 933 581 q 924 738 931 700 q 900 835 913 792 q 867 906 888 878 q 797 969 839 942 q 708 1007 756 996 q 621 1015 675 1014 q 492 1017 567 1017 q 363 1015 417 1017 q 275 1007 308 1014 q 186 969 228 996 q 117 906 144 942 q 83 835 96 878 q 60 738 71 792 q 51 640 53 700 q 50 499 50 581 l 50 490 m 492 825 q 574 823 535 825 q 640 814 613 821 q 711 765 690 801 q 732 654 732 728 l 732 335 q 711 224 732 261 q 640 175 690 188 q 574 166 613 168 q 492 164 535 164 q 410 166 449 164 q 343 175 371 168 q 272 224 293 188 q 251 335 251 261 l 251 654 q 272 765 251 728 q 343 814 293 801 q 410 823 371 821 q 492 825 449 825 m 700 1088 q 711 1076 707 1081 q 715 1069 715 1072 q 701 1056 715 1056 q 682 1056 697 1056 q 663 1057 667 1057 q 462 1088 538 1071 q 345 1126 386 1106 q 292 1172 304 1147 q 279 1225 279 1197 q 300 1268 279 1251 q 353 1285 321 1285 q 431 1263 383 1285 q 530 1210 479 1242 q 626 1146 581 1179 q 700 1088 672 1113 z "},"Ó":{"ha":988,"x_min":50,"x_max":933,"o":"m 50 490 q 51 349 50 408 q 60 251 53 289 q 83 154 71 197 q 117 83 96 111 q 186 20 144 47 q 275 -18 228 -7 q 363 -26 308 -25 q 492 -28 417 -28 q 621 -26 567 -28 q 708 -18 675 -25 q 797 20 756 -7 q 867 83 839 47 q 900 154 888 111 q 924 251 913 197 q 932 349 931 289 q 933 490 933 408 l 933 499 q 932 640 933 581 q 924 738 931 700 q 900 835 913 792 q 867 906 888 878 q 797 969 839 942 q 708 1007 756 996 q 621 1015 675 1014 q 492 1017 567 1017 q 363 1015 417 1017 q 275 1007 308 1014 q 186 969 228 996 q 117 906 144 942 q 83 835 96 878 q 60 738 71 792 q 51 640 53 700 q 50 499 50 581 l 50 490 m 492 825 q 574 823 535 825 q 640 814 613 821 q 711 765 690 801 q 732 654 732 728 l 732 335 q 711 224 732 261 q 640 175 690 188 q 574 166 613 168 q 492 164 535 164 q 410 166 449 164 q 343 175 371 168 q 272 224 293 188 q 251 335 251 261 l 251 654 q 272 765 251 728 q 343 814 293 801 q 410 823 371 821 q 492 825 449 825 m 279 1081 q 268 1069 272 1074 q 264 1063 264 1065 q 278 1049 264 1049 q 297 1049 282 1049 q 317 1050 313 1050 q 517 1081 442 1064 q 634 1119 593 1099 q 688 1165 675 1140 q 700 1218 700 1190 q 679 1261 700 1244 q 626 1278 658 1278 q 548 1256 596 1278 q 449 1203 500 1235 q 352 1139 399 1172 q 279 1081 306 1106 z "},"Ô":{"ha":988,"x_min":50,"x_max":933,"o":"m 50 490 q 51 349 50 408 q 60 251 53 289 q 83 154 71 197 q 117 83 96 111 q 186 20 144 47 q 275 -18 228 -7 q 363 -26 308 -25 q 492 -28 417 -28 q 621 -26 567 -28 q 708 -18 675 -25 q 797 20 756 -7 q 867 83 839 47 q 900 154 888 111 q 924 251 913 197 q 932 349 931 289 q 933 490 933 408 l 933 499 q 932 640 933 581 q 924 738 931 700 q 900 835 913 792 q 867 906 888 878 q 797 969 839 942 q 708 1007 756 996 q 621 1015 675 1014 q 492 1017 567 1017 q 363 1015 417 1017 q 275 1007 308 1014 q 186 969 228 996 q 117 906 144 942 q 83 835 96 878 q 60 738 71 792 q 51 640 53 700 q 50 499 50 581 l 50 490 m 492 825 q 574 823 535 825 q 640 814 613 821 q 711 765 690 801 q 732 654 732 728 l 732 335 q 711 224 732 261 q 640 175 690 188 q 574 166 613 168 q 492 164 535 164 q 410 166 449 164 q 343 175 371 168 q 272 224 293 188 q 251 335 251 261 l 251 654 q 272 765 251 728 q 343 814 293 801 q 410 823 371 821 q 492 825 449 825 m 750 1064 q 753 1057 753 1061 q 744 1050 753 1050 l 607 1050 q 594 1053 599 1050 q 585 1060 589 1056 l 514 1144 q 506 1154 510 1150 q 499 1158 501 1158 q 492 1154 496 1158 q 483 1144 488 1150 l 414 1061 q 389 1050 406 1050 l 251 1050 q 244 1056 244 1050 q 249 1064 244 1060 l 393 1239 q 406 1249 400 1246 q 424 1253 413 1253 l 578 1253 q 591 1250 586 1253 q 601 1240 596 1247 l 750 1064 z "},"Õ":{"ha":988,"x_min":50,"x_max":933,"o":"m 50 490 q 51 349 50 408 q 60 251 53 289 q 83 154 71 197 q 117 83 96 111 q 186 20 144 47 q 275 -18 228 -7 q 363 -26 308 -25 q 492 -28 417 -28 q 621 -26 567 -28 q 708 -18 675 -25 q 797 20 756 -7 q 867 83 839 47 q 900 154 888 111 q 924 251 913 197 q 932 349 931 289 q 933 490 933 408 l 933 499 q 932 640 933 581 q 924 738 931 700 q 900 835 913 792 q 867 906 888 878 q 797 969 839 942 q 708 1007 756 996 q 621 1015 675 1014 q 492 1017 567 1017 q 363 1015 417 1017 q 275 1007 308 1014 q 186 969 228 996 q 117 906 144 942 q 83 835 96 878 q 60 738 71 792 q 51 640 53 700 q 50 499 50 581 l 50 490 m 492 825 q 574 823 535 825 q 640 814 613 821 q 711 765 690 801 q 732 654 732 728 l 732 335 q 711 224 732 261 q 640 175 690 188 q 574 166 613 168 q 492 164 535 164 q 410 166 449 164 q 343 175 371 168 q 272 224 293 188 q 251 335 251 261 l 251 654 q 272 765 251 728 q 343 814 293 801 q 410 823 371 821 q 492 825 449 825 m 771 1263 q 782 1254 782 1263 l 782 1251 q 722 1109 760 1158 q 617 1060 683 1060 q 394 1124 561 1060 q 381 1126 383 1126 q 347 1110 361 1126 q 326 1071 333 1093 q 310 1057 322 1057 l 243 1057 q 228 1069 228 1057 q 228 1072 228 1071 q 229 1075 229 1072 q 242 1125 239 1118 q 268 1189 253 1165 q 408 1263 318 1263 q 508 1231 433 1263 q 613 1199 585 1199 q 681 1247 663 1199 q 700 1263 686 1263 l 771 1263 z "},"Ö":{"ha":988,"x_min":50,"x_max":933,"o":"m 50 490 q 51 349 50 408 q 60 251 53 289 q 83 154 71 197 q 117 83 96 111 q 186 20 144 47 q 275 -18 228 -7 q 363 -26 308 -25 q 492 -28 417 -28 q 621 -26 567 -28 q 708 -18 675 -25 q 797 20 756 -7 q 867 83 839 47 q 900 154 888 111 q 924 251 913 197 q 932 349 931 289 q 933 490 933 408 l 933 499 q 932 640 933 581 q 924 738 931 700 q 900 835 913 792 q 867 906 888 878 q 797 969 839 942 q 708 1007 756 996 q 621 1015 675 1014 q 492 1017 567 1017 q 363 1015 417 1017 q 275 1007 308 1014 q 186 969 228 996 q 117 906 144 942 q 83 835 96 878 q 60 738 71 792 q 51 640 53 700 q 50 499 50 581 l 50 490 m 492 825 q 574 823 535 825 q 640 814 613 821 q 711 765 690 801 q 732 654 732 728 l 732 335 q 711 224 732 261 q 640 175 690 188 q 574 166 613 168 q 492 164 535 164 q 410 166 449 164 q 343 175 371 168 q 272 224 293 188 q 251 335 251 261 l 251 654 q 272 765 251 728 q 343 814 293 801 q 410 823 371 821 q 492 825 449 825 m 547 1072 q 561 1058 547 1058 l 735 1058 q 749 1072 749 1058 l 749 1246 q 735 1260 749 1260 l 561 1260 q 547 1246 547 1260 l 547 1072 m 279 1072 q 293 1058 279 1058 l 467 1058 q 481 1072 481 1058 l 481 1246 q 467 1260 481 1260 l 293 1260 q 279 1246 279 1260 l 279 1072 z "},"¿":{"ha":756,"x_min":22,"x_max":715,"o":"m 578 768 q 564 782 578 782 l 390 782 q 376 768 376 782 l 376 699 q 372 651 376 672 q 357 613 368 629 q 324 589 346 597 q 268 581 303 581 q 80 503 138 581 q 22 293 22 425 q 36 188 22 240 q 79 93 50 135 q 152 25 108 51 q 256 -1 196 -1 l 701 -1 q 715 13 715 -1 l 715 165 q 701 179 715 179 l 300 179 q 261 190 276 179 q 238 218 246 201 q 226 253 229 235 q 222 285 222 271 q 240 365 222 338 q 315 393 257 393 q 433 418 383 393 q 514 485 482 443 q 562 582 546 526 q 578 699 578 638 l 578 768 m 376 840 q 390 826 376 826 l 564 826 q 578 840 578 826 l 578 981 q 564 994 578 994 l 390 994 q 376 981 376 994 l 376 840 z "},"«":{"ha":561,"x_min":31,"x_max":504,"o":"m 249 669 q 256 672 251 672 q 263 664 263 672 l 263 526 q 260 513 263 518 q 253 504 257 508 l 139 406 q 129 397 133 401 q 125 390 125 393 q 129 383 125 388 q 139 375 133 379 l 251 275 q 263 250 263 267 l 263 113 q 257 106 263 106 q 249 110 253 106 l 44 285 q 34 298 38 292 q 31 315 31 304 l 31 469 q 33 483 31 478 q 43 493 36 488 l 249 669 m 490 669 q 497 672 493 672 q 504 664 504 672 l 504 526 q 501 513 504 518 q 494 504 499 508 l 381 406 q 371 397 375 401 q 367 390 367 393 q 371 383 367 388 q 381 375 375 379 l 493 275 q 504 250 504 267 l 504 113 q 499 106 504 106 q 490 110 494 106 l 286 285 q 276 298 279 292 q 272 315 272 304 l 272 469 q 275 483 272 478 q 285 493 278 488 l 490 669 z "},"(":{"ha":374,"x_min":51,"x_max":344,"o":"m 240 125 q 257 0 240 47 q 324 -107 276 -56 l 343 -128 q 344 -132 344 -129 q 339 -136 344 -136 l 143 -136 q 123 -126 132 -136 q 108 -107 114 -115 q 66 -22 81 -64 q 51 68 51 21 l 51 928 q 67 1016 51 975 q 108 1103 83 1057 q 123 1122 114 1113 q 143 1132 132 1132 l 339 1132 q 344 1128 344 1132 q 343 1124 344 1125 l 324 1103 q 257 996 276 1051 q 240 871 240 947 l 240 125 z "},"\\":{"ha":738,"x_min":7,"x_max":729,"o":"m 726 15 q 729 8 729 10 q 717 0 729 0 l 563 0 q 547 4 551 0 q 538 15 542 8 l 10 981 q 7 988 7 986 q 19 996 7 996 l 174 996 q 190 992 185 996 q 199 981 194 988 l 726 15 z "},">":{"ha":776,"x_min":50,"x_max":767,"o":"m 767 528 l 767 442 q 744 411 767 418 l 119 194 q 113 193 117 193 q 96 204 100 193 l 51 336 q 50 344 50 339 q 57 354 50 351 l 400 472 q 418 485 418 478 q 400 497 418 492 l 57 615 q 50 625 50 618 q 51 633 50 631 l 96 765 q 113 776 100 776 q 119 775 117 776 l 744 558 q 767 528 767 551 z "},"":{"ha":385,"x_min":28,"x_max":368,"o":"m 347 963 q 368 950 368 963 q 361 936 368 943 l 185 772 q 153 760 172 760 l 39 760 q 28 767 28 760 q 31 775 28 769 l 146 940 q 163 956 153 950 q 186 963 172 963 l 347 963 z "},"`":{"ha":481,"x_min":31,"x_max":467,"o":"m 451 782 q 463 771 458 775 q 467 764 467 767 q 453 750 467 750 q 433 751 449 750 q 414 751 418 751 q 213 783 289 765 q 97 821 138 800 q 43 867 56 842 q 31 919 31 892 q 51 963 31 946 q 104 979 72 979 q 183 958 135 979 q 281 905 231 936 q 378 840 332 874 q 451 782 424 807 z "},"":{"ha":826,"x_min":38,"x_max":789,"o":"m 172 1224 q 169 1231 169 1226 q 178 1238 169 1238 l 315 1238 q 328 1235 324 1238 q 338 1228 333 1232 l 408 1143 q 417 1133 413 1138 q 424 1129 421 1129 q 431 1133 426 1129 q 439 1143 435 1138 l 508 1226 q 533 1238 517 1238 l 671 1238 q 678 1232 678 1238 q 674 1224 678 1228 l 529 1049 q 516 1038 522 1042 q 499 1035 510 1035 l 344 1035 q 321 1047 331 1035 l 172 1224 m 463 414 q 523 408 497 414 q 563 386 549 401 q 582 342 579 367 q 585 296 585 318 q 583 267 585 281 q 575 238 582 253 q 553 201 568 221 q 517 181 538 181 l 69 181 q 56 167 56 181 l 56 14 q 69 0 56 0 l 575 0 q 640 19 606 0 q 697 57 674 38 q 786 251 775 125 q 789 275 789 263 q 789 304 789 289 q 785 371 789 336 q 770 438 781 406 q 744 497 760 469 q 704 544 728 525 q 617 590 664 578 q 526 601 569 601 l 371 601 q 312 604 339 601 q 269 622 285 607 q 250 664 253 640 q 247 710 247 688 q 249 738 247 724 q 257 765 250 751 q 280 798 264 781 q 315 815 296 815 l 717 815 q 731 829 731 815 l 731 982 q 717 996 731 996 l 257 996 q 189 978 224 996 q 131 940 154 960 q 40 753 50 874 q 38 728 38 740 q 38 701 38 715 q 42 637 38 669 q 58 573 47 604 q 84 515 68 542 q 124 468 100 488 q 213 425 164 436 q 306 414 263 414 l 463 414 z "},"":{"ha":710,"x_min":43,"x_max":664,"o":"m 129 943 q 126 950 126 946 q 135 957 126 957 l 272 957 q 285 954 281 957 q 294 947 290 951 l 365 863 q 374 853 369 857 q 381 849 378 849 q 388 853 383 849 q 396 863 392 857 l 465 946 q 490 957 474 957 l 628 957 q 635 951 635 957 q 631 943 635 947 l 486 768 q 473 758 479 761 q 456 754 467 754 l 301 754 q 278 767 288 754 l 129 943 m 43 156 l 43 14 q 57 0 43 0 l 511 0 q 588 24 558 0 q 635 80 618 47 q 658 147 651 113 q 664 201 664 181 q 652 322 664 274 q 616 397 640 369 q 553 437 592 425 q 460 449 514 449 l 257 449 q 226 467 236 449 q 215 503 215 485 q 225 538 215 522 q 257 554 235 554 l 621 554 q 635 568 635 554 l 635 710 q 621 724 635 724 l 321 724 q 199 715 250 724 q 116 683 149 707 q 67 617 83 660 q 51 504 51 574 q 61 417 51 457 q 92 349 71 378 q 147 305 113 321 q 232 289 182 289 l 450 289 q 487 271 478 289 q 496 235 496 253 q 494 213 496 225 q 487 192 493 201 q 469 176 481 182 q 439 169 458 169 l 57 169 q 43 156 43 169 z "},"¦":{"ha":325,"x_min":57,"x_max":265,"o":"m 71 0 l 251 0 q 265 14 265 0 l 265 399 q 251 413 265 413 l 71 413 q 57 399 57 413 l 57 14 q 71 0 57 0 m 57 597 q 71 583 57 583 l 251 583 q 265 597 265 583 l 265 982 q 251 996 265 996 l 71 996 q 57 982 57 996 l 57 597 z "},"Ð":{"ha":992,"x_min":22,"x_max":936,"o":"m 144 14 q 158 0 144 0 l 633 0 q 769 28 713 0 q 864 103 826 57 q 919 205 901 149 q 936 315 936 261 l 936 649 q 919 775 936 713 q 864 886 901 838 q 769 965 826 935 q 632 996 711 996 l 158 996 q 144 982 144 996 l 144 624 q 131 610 144 610 l 32 610 q 22 596 22 608 l 22 463 q 36 449 22 449 l 131 449 q 144 435 144 449 l 144 14 m 346 624 l 346 801 q 360 815 346 815 l 597 815 q 647 803 622 815 q 690 773 671 792 q 722 730 710 754 q 735 681 735 706 l 735 311 q 724 265 735 288 q 694 223 713 242 q 653 192 676 204 q 608 181 631 181 l 360 181 q 346 194 346 181 l 346 435 q 360 449 346 449 l 610 449 q 624 463 624 449 l 624 596 q 610 610 624 610 l 360 610 q 346 624 346 610 z "},"ð":{"ha":831,"x_min":32,"x_max":790,"o":"m 790 418 q 764 238 790 318 q 688 100 738 157 q 567 13 639 43 q 406 -18 496 -18 q 251 9 319 -18 q 133 86 182 36 q 58 206 85 136 q 32 360 32 275 q 56 501 32 435 q 123 618 79 568 q 228 697 167 668 q 367 726 290 726 q 549 653 471 726 q 493 744 521 711 q 463 775 482 756 q 415 821 443 794 l 283 763 q 254 764 265 756 l 189 818 q 193 835 178 828 q 254 859 224 847 q 314 886 285 871 q 314 903 328 893 q 275 929 293 918 q 240 947 257 940 q 235 954 233 950 q 242 961 236 958 l 365 1018 q 379 1020 372 1021 q 392 1017 386 1019 q 439 994 419 1006 q 471 974 458 983 q 487 966 481 967 q 503 969 493 965 l 614 1018 q 639 1014 626 1024 l 704 960 q 703 946 714 951 l 586 894 q 585 881 576 889 q 790 418 790 663 m 589 365 q 543 507 589 453 q 410 561 497 561 q 334 545 367 561 q 279 501 301 529 q 246 437 257 474 q 235 358 235 400 q 245 276 235 315 q 277 208 256 238 q 332 162 299 179 q 411 144 365 144 q 491 163 457 144 q 547 210 525 181 q 578 281 568 240 q 589 365 589 321 z "},"Ý":{"ha":831,"x_min":17,"x_max":907,"o":"m 556 0 q 575 35 575 0 l 575 344 q 608 361 590 349 q 646 400 626 374 l 904 976 q 905 990 907 983 q 893 996 903 996 l 706 996 q 682 976 690 996 l 492 551 q 483 541 486 544 q 469 538 479 538 q 447 551 454 538 l 250 979 q 226 996 243 996 l 35 996 q 28 975 17 996 l 294 400 q 331 361 310 374 q 367 344 353 349 l 367 35 q 388 0 367 0 l 556 0 m 201 1054 q 190 1043 194 1047 q 186 1036 186 1039 q 200 1022 186 1022 q 219 1023 204 1022 q 239 1024 235 1024 q 440 1055 364 1038 q 556 1093 515 1072 q 610 1139 597 1114 q 622 1192 622 1164 q 601 1235 622 1218 q 549 1251 581 1251 q 470 1230 518 1251 q 372 1177 422 1208 q 274 1113 321 1146 q 201 1054 228 1079 z "},"ý":{"ha":817,"x_min":-3,"x_max":771,"o":"m 376 -269 q 399 -258 394 -269 l 769 708 q 771 714 771 711 q 757 724 771 724 l 590 724 q 575 715 578 724 l 399 250 q 394 237 397 246 q 386 219 390 228 q 376 203 382 210 q 365 196 371 196 q 354 203 360 196 q 344 220 349 211 q 336 238 339 229 q 332 251 333 247 l 185 714 q 168 724 181 724 l 7 724 q -3 714 -3 724 q -1 708 -3 710 l 224 46 q 244 16 231 25 q 269 4 257 7 q 292 1 282 1 q 301 -1 301 1 l 301 -3 l 204 -260 l 204 -264 q 211 -269 204 -269 l 376 -269 m 201 782 q 190 771 194 775 q 186 764 186 767 q 200 750 186 750 q 219 751 204 750 q 239 751 235 751 q 440 783 364 765 q 556 821 515 800 q 610 867 597 842 q 622 919 622 892 q 601 963 622 946 q 549 979 581 979 q 470 958 518 979 q 372 905 422 936 q 274 840 321 874 q 201 782 228 807 z "},"Þ":{"ha":836,"x_min":57,"x_max":824,"o":"m 57 982 l 57 14 q 71 0 57 0 l 253 0 q 267 14 267 0 l 267 211 q 276 221 267 218 l 532 221 q 746 321 663 221 q 824 549 824 415 q 743 771 824 682 q 531 861 661 861 l 272 861 q 267 874 267 863 l 267 982 q 253 996 267 996 l 71 996 q 57 982 57 996 m 611 529 q 577 431 611 467 q 483 394 543 394 l 281 394 q 267 408 267 394 l 267 678 q 276 688 267 685 l 468 688 q 582 649 549 688 q 611 529 611 613 z "},"þ":{"ha":785,"x_min":56,"x_max":764,"o":"m 764 515 q 743 603 764 565 q 690 669 722 642 q 618 710 658 696 q 540 724 578 724 l 272 724 q 256 723 264 724 q 239 721 247 722 l 239 982 q 225 996 239 996 l 69 996 q 56 982 56 996 l 56 -274 q 69 -287 56 -287 l 225 -287 q 239 -274 239 -287 l 239 1 q 254 0 246 0 q 272 0 263 0 l 507 0 q 619 13 571 0 q 699 57 667 25 q 747 143 731 89 q 764 281 764 197 l 764 515 m 581 485 l 581 253 q 544 193 581 217 q 457 169 507 169 l 358 169 q 319 173 340 169 q 281 187 299 176 q 251 215 263 197 q 239 261 239 233 l 239 483 q 249 517 239 503 q 273 539 258 531 q 306 551 288 547 q 342 554 324 554 l 464 554 q 506 550 485 554 q 543 537 526 546 q 570 515 560 528 q 581 485 581 501 z "},"­":{"ha":833,"x_min":57,"x_max":775,"o":"m 57 294 q 71 281 57 281 l 761 281 q 775 294 775 281 l 775 428 q 761 442 775 442 l 71 442 q 57 428 57 442 l 57 294 z "},"×":{"ha":719,"x_min":44,"x_max":675,"o":"m 371 489 q 361 483 367 483 q 351 489 356 483 l 165 675 q 156 681 157 681 q 146 675 151 681 l 50 579 q 44 569 44 574 q 50 560 44 564 l 238 371 q 242 363 242 367 q 236 354 242 358 l 50 167 q 44 157 44 161 q 50 147 44 151 l 140 56 q 150 50 144 50 q 160 56 156 50 l 347 243 q 357 249 353 249 q 367 243 358 249 l 553 56 q 563 50 557 50 q 572 56 567 50 l 669 153 q 675 163 675 158 q 669 172 675 164 l 482 358 q 476 368 476 363 q 482 378 476 372 l 669 565 q 675 575 675 571 q 669 585 675 576 l 578 675 q 568 681 569 681 q 558 675 564 681 l 371 489 z "},"Ł":{"ha":711,"x_min":-87,"x_max":701,"o":"m -81 471 q -85 465 -83 468 q -87 456 -87 463 l -87 360 q -83 353 -87 353 q -81 354 -82 353 l 56 446 l 56 243 q 104 69 56 126 q 268 1 153 11 q 285 0 275 0 q 306 0 294 0 l 688 0 q 701 14 701 0 l 701 167 q 688 181 701 181 l 311 181 q 257 226 257 181 l 257 583 l 397 679 q 406 694 406 685 l 406 790 q 401 799 406 799 q 399 798 400 799 q 397 797 399 797 l 257 701 l 257 982 q 243 996 257 996 l 69 996 q 56 982 56 996 l 56 564 l -81 471 z "},"ł":{"ha":318,"x_min":-92,"x_max":401,"o":"m 57 982 l 57 572 l -85 476 q -90 471 -87 474 q -92 461 -92 468 l -92 365 q -87 358 -92 358 q -85 360 -86 358 l 57 456 l 57 14 q 71 0 57 0 l 244 0 q 258 14 258 0 l 258 593 l 393 685 q 401 700 401 690 l 401 796 q 397 804 401 804 q 395 803 396 804 q 393 803 394 803 l 258 710 l 258 982 q 244 996 258 996 l 71 996 q 57 982 57 996 z "},"Ž":{"ha":817,"x_min":36,"x_max":776,"o":"m 167 1221 q 164 1228 164 1224 q 172 1235 164 1235 l 310 1235 q 323 1232 318 1235 q 332 1225 328 1229 l 403 1140 q 411 1131 407 1135 q 418 1126 415 1126 q 425 1131 421 1126 q 433 1140 429 1135 l 503 1224 q 528 1235 511 1235 l 665 1235 q 672 1229 672 1235 q 668 1221 672 1225 l 524 1046 q 510 1035 517 1039 q 493 1032 504 1032 l 339 1032 q 315 1044 325 1032 l 167 1221 m 539 792 q 538 781 539 783 q 531 771 538 778 l 96 342 q 56 285 75 321 q 36 174 36 249 q 69 55 36 99 q 192 0 103 11 l 763 0 q 776 14 776 0 l 776 176 q 763 190 776 190 l 267 190 q 258 195 261 190 q 254 206 254 200 l 257 213 l 718 669 q 760 747 749 700 q 771 833 771 793 q 727 953 771 911 q 608 996 683 996 l 92 996 q 78 982 78 996 l 78 819 q 92 806 78 806 l 531 806 q 538 800 536 806 q 539 792 539 794 z "},"ž":{"ha":735,"x_min":51,"x_max":681,"o":"m 118 947 q 115 954 115 950 q 124 961 115 961 l 261 961 q 274 958 269 961 q 283 951 279 956 l 354 867 q 363 857 358 861 q 369 853 367 853 q 376 857 372 853 q 385 867 381 861 l 454 950 q 479 961 463 961 l 617 961 q 624 956 624 961 q 619 947 624 951 l 475 772 q 462 762 468 765 q 444 758 456 758 l 290 758 q 267 771 276 758 l 118 947 m 207 0 q 85 31 119 0 q 51 117 51 63 q 63 166 51 143 q 96 210 75 189 l 417 529 q 422 542 422 535 q 399 554 422 554 l 82 554 q 68 568 68 554 l 68 710 q 82 724 68 724 l 538 724 q 650 692 619 724 q 681 597 681 661 q 672 547 681 568 q 649 511 664 526 l 336 199 q 326 181 326 189 q 342 169 326 169 l 661 169 q 675 156 675 169 l 675 14 q 661 0 675 0 l 207 0 z "},"Ω":{"ha":1104,"x_min":44,"x_max":1058,"o":"m 1058 0 l 633 0 l 656 219 q 764 286 728 249 q 860 579 860 383 q 789 839 860 744 q 550 947 708 947 q 315 838 396 947 q 243 581 243 740 q 343 283 243 383 q 450 219 381 246 l 472 0 l 44 0 l 44 233 l 69 233 q 83 189 78 200 q 113 156 94 161 q 263 144 149 142 l 390 147 l 388 186 q 206 276 264 224 q 74 575 74 394 q 219 886 74 769 q 553 994 354 994 q 885 886 750 994 q 1031 576 1031 769 q 983 383 1031 475 q 849 240 933 288 q 718 186 793 210 l 715 147 q 781 146 738 147 q 846 144 824 144 q 992 154 967 144 q 1032 217 1021 174 l 1036 233 l 1058 233 l 1058 0 z "},"Δ":{"ha":907,"x_min":17,"x_max":886,"o":"m 886 0 l 17 0 l 479 996 l 886 0 m 706 72 l 428 744 l 114 72 l 706 72 z "},"":{"ha":940,"x_min":26,"x_max":908,"o":"m 674 983 q 611 821 674 893 q 460 749 549 749 q 515 919 460 853 q 674 999 571 985 l 674 983 m 908 244 q 664 -37 794 -37 q 606 -25 635 -37 l 547 0 q 501 4 535 4 q 425 -1 450 4 l 364 -28 q 308 -39 338 -39 q 149 78 228 -39 q 26 442 26 260 q 94 663 26 574 q 297 760 169 760 q 410 733 343 760 q 478 717 453 717 q 540 731 503 717 q 672 763 628 763 q 881 660 806 763 q 765 458 765 569 q 908 244 765 303 z "},"¹":{"ha":286,"x_min":57,"x_max":226,"o":"m 57 14 q 71 0 57 0 l 213 0 q 226 14 226 0 l 226 710 q 213 724 226 724 l 71 724 q 57 710 57 724 l 57 14 z "},"²":{"ha":385,"x_min":28,"x_max":368,"o":"m 347 963 q 368 950 368 963 q 361 936 368 943 l 185 772 q 153 760 172 760 l 39 760 q 28 767 28 760 q 31 775 28 769 l 146 940 q 163 956 153 950 q 186 963 172 963 l 347 963 z "},"³":{"ha":385,"x_min":15,"x_max":356,"o":"m 36 963 q 15 950 15 963 q 22 936 15 943 l 199 772 q 231 760 211 760 l 344 760 q 356 767 356 760 q 353 775 356 769 l 238 940 q 221 956 231 950 q 197 963 211 963 l 36 963 z "}}}
